<svg width="546" height="546" viewBox="0 0 546 546" fill="none" xmlns="http://www.w3.org/2000/svg">
<rect width="546" height="546" fill="white"/>
<path d="M69.88 116.768V188H56.44L55.672 182.432C54.136 184.608 52.184 186.368 49.816 187.712C47.448 188.992 44.696 189.632 41.56 189.632C35.416 189.632 30.744 187.2 27.544 182.336C24.408 177.472 22.84 170.816 22.84 162.368C22.84 157.12 23.672 152.448 25.336 148.352C27 144.256 29.368 141.056 32.44 138.752C35.512 136.448 39.096 135.296 43.192 135.296C47.8 135.296 51.64 136.896 54.712 140.096V115.136L69.88 116.768ZM47.224 146.432C44.472 146.432 42.328 147.744 40.792 150.368C39.256 152.928 38.488 156.96 38.488 162.464C38.488 168.352 39.16 172.512 40.504 174.944C41.912 177.312 43.864 178.496 46.36 178.496C49.56 178.496 52.344 176.544 54.712 172.64V150.656C53.624 149.248 52.472 148.192 51.256 147.488C50.104 146.784 48.76 146.432 47.224 146.432ZM126.195 173.312C126.195 175.168 126.451 176.544 126.963 177.44C127.475 178.336 128.339 179.008 129.555 179.456L126.387 189.44C123.315 189.12 120.755 188.448 118.707 187.424C116.659 186.336 115.059 184.768 113.907 182.72C111.987 184.96 109.555 186.688 106.611 187.904C103.667 189.056 100.531 189.632 97.2025 189.632C91.9545 189.632 87.7625 188.16 84.6265 185.216C81.4905 182.208 79.9225 178.336 79.9225 173.6C79.9225 168.096 82.0985 163.84 86.4505 160.832C90.8025 157.76 96.9145 156.224 104.786 156.224H111.603V154.4C111.603 149.152 108.243 146.528 101.523 146.528C99.7945 146.528 97.6185 146.784 94.9945 147.296C92.4345 147.744 89.9385 148.384 87.5065 149.216L84.0505 139.136C87.3145 137.92 90.7065 136.992 94.2265 136.352C97.8105 135.648 101.043 135.296 103.923 135.296C118.771 135.296 126.195 141.312 126.195 153.344V173.312ZM102.387 178.784C104.115 178.784 105.843 178.304 107.571 177.344C109.363 176.32 110.707 174.944 111.603 173.216V164.864H107.859C99.6665 164.864 95.5705 167.424 95.5705 172.544C95.5705 174.528 96.1465 176.064 97.2985 177.152C98.5145 178.24 100.211 178.784 102.387 178.784ZM186.733 185.024C181.933 188.096 176.365 189.632 170.029 189.632C163.501 189.632 158.573 187.968 155.245 184.64C151.981 181.312 150.349 176.64 150.349 170.624V147.488H139.693V137.024H150.349V125.984L165.517 124.16V137.024H181.933L180.397 147.488H165.517V170.624C165.517 173.12 166.093 174.912 167.245 176C168.397 177.088 170.253 177.632 172.813 177.632C176.013 177.632 178.989 176.864 181.741 175.328L186.733 185.024ZM241.32 173.312C241.32 175.168 241.576 176.544 242.088 177.44C242.6 178.336 243.464 179.008 244.68 179.456L241.512 189.44C238.44 189.12 235.88 188.448 233.832 187.424C231.784 186.336 230.184 184.768 229.032 182.72C227.112 184.96 224.68 186.688 221.736 187.904C218.792 189.056 215.656 189.632 212.328 189.632C207.08 189.632 202.888 188.16 199.752 185.216C196.616 182.208 195.048 178.336 195.048 173.6C195.048 168.096 197.224 163.84 201.576 160.832C205.928 157.76 212.04 156.224 219.911 156.224H226.728V154.4C226.728 149.152 223.368 146.528 216.648 146.528C214.92 146.528 212.744 146.784 210.12 147.296C207.56 147.744 205.064 148.384 202.632 149.216L199.176 139.136C202.44 137.92 205.832 136.992 209.352 136.352C212.936 135.648 216.168 135.296 219.048 135.296C233.896 135.296 241.32 141.312 241.32 153.344V173.312ZM217.512 178.784C219.24 178.784 220.968 178.304 222.696 177.344C224.488 176.32 225.832 174.944 226.728 173.216V164.864H222.984C214.792 164.864 210.696 167.424 210.696 172.544C210.696 174.528 211.272 176.064 212.424 177.152C213.64 178.24 215.336 178.784 217.512 178.784ZM69.88 205.768V277H56.44L55.672 271.432C54.136 273.608 52.184 275.368 49.816 276.712C47.448 277.992 44.696 278.632 41.56 278.632C35.416 278.632 30.744 276.2 27.544 271.336C24.408 266.472 22.84 259.816 22.84 251.368C22.84 246.12 23.672 241.448 25.336 237.352C27 233.256 29.368 230.056 32.44 227.752C35.512 225.448 39.096 224.296 43.192 224.296C47.8 224.296 51.64 225.896 54.712 229.096V204.136L69.88 205.768ZM47.224 235.432C44.472 235.432 42.328 236.744 40.792 239.368C39.256 241.928 38.488 245.96 38.488 251.464C38.488 257.352 39.16 261.512 40.504 263.944C41.912 266.312 43.864 267.496 46.36 267.496C49.56 267.496 52.344 265.544 54.712 261.64V239.656C53.624 238.248 52.472 237.192 51.256 236.488C50.104 235.784 48.76 235.432 47.224 235.432ZM122.163 224.488C125.235 224.488 128.051 225 130.611 226.024L127.827 247.336H118.227V237.928C115.411 238.44 112.915 239.976 110.739 242.536C108.563 245.096 106.867 248.328 105.651 252.232V266.824H115.731V277H83.7625V266.824H90.4825V236.104H83.7625V226.024H102.099L104.786 237.448C106.643 233.096 108.979 229.864 111.795 227.752C114.611 225.576 118.067 224.488 122.163 224.488ZM162.829 199.336C165.453 199.336 167.597 200.168 169.261 201.832C170.925 203.432 171.757 205.448 171.757 207.88C171.757 210.376 170.925 212.424 169.261 214.024C167.597 215.624 165.453 216.424 162.829 216.424C160.205 216.424 158.029 215.624 156.301 214.024C154.637 212.36 153.805 210.312 153.805 207.88C153.805 205.448 154.637 203.432 156.301 201.832C158.029 200.168 160.205 199.336 162.829 199.336ZM171.949 266.632H185.005V277H142.381V266.632H156.781V236.392H142.861V226.024H171.949V266.632ZM229.512 277H211.656L194.472 226.024H210.888L220.776 265.384L231.144 226.024H246.504L229.512 277ZM269.122 255.976C270.082 263.72 274.178 267.592 281.41 267.592C285.762 267.592 290.114 266.184 294.466 263.368L300.514 271.624C298.018 273.8 295.042 275.528 291.586 276.808C288.13 278.024 284.322 278.632 280.162 278.632C274.466 278.632 269.634 277.512 265.666 275.272C261.698 272.968 258.69 269.8 256.642 265.768C254.658 261.672 253.666 256.936 253.666 251.56C253.666 246.44 254.626 241.832 256.546 237.736C258.53 233.576 261.378 230.312 265.09 227.944C268.866 225.512 273.346 224.296 278.53 224.296C283.394 224.296 287.618 225.352 291.202 227.464C294.786 229.512 297.538 232.52 299.458 236.488C301.442 240.392 302.434 245.064 302.434 250.504C302.434 252.616 302.338 254.44 302.146 255.976H269.122ZM278.53 234.472C275.778 234.472 273.57 235.496 271.906 237.544C270.242 239.528 269.25 242.6 268.93 246.76H287.65C287.522 238.568 284.482 234.472 278.53 234.472ZM313.533 226.024H326.781L327.837 231.88C330.141 229.32 332.541 227.432 335.036 226.216C337.597 224.936 340.477 224.296 343.677 224.296C348.093 224.296 351.517 225.64 353.949 228.328C356.445 231.016 357.693 234.76 357.693 239.56V277H342.525V243.976C342.525 240.776 342.173 238.568 341.469 237.352C340.765 236.136 339.485 235.528 337.629 235.528C336.093 235.528 334.589 236.04 333.117 237.064C331.709 238.024 330.237 239.464 328.701 241.384V277H313.533V226.024ZM52.792 355.632C54.712 355.632 56.568 355.28 58.36 354.576C60.152 353.808 62.072 352.72 64.12 351.312L70.84 360.912C68.408 362.96 65.592 364.592 62.392 365.808C59.192 367.024 55.704 367.632 51.928 367.632C46.488 367.632 41.784 366.512 37.816 364.272C33.912 362.032 30.904 358.896 28.792 354.864C26.68 350.832 25.624 346.16 25.624 340.848C25.624 335.536 26.712 330.8 28.888 326.64C31.064 322.48 34.136 319.216 38.104 316.848C42.136 314.48 46.84 313.296 52.216 313.296C55.992 313.296 59.384 313.84 62.392 314.928C65.4 315.952 68.216 317.552 70.84 319.728L64.312 328.848C60.6 326.288 56.792 325.008 52.888 325.008C45.272 325.008 41.464 330.288 41.464 340.848C41.464 346.16 42.456 349.968 44.44 352.272C46.424 354.512 49.208 355.632 52.792 355.632ZM114.387 366H96.5305L79.3465 315.024H95.7625L105.651 354.384L116.019 315.024H131.379L114.387 366Z" fill="black"/>
<rect x="361.5" y="315.5" width="157" height="211.908" fill="white" stroke="black"/>
<path d="M500.888 334.725C500.593 338.714 497.569 341.967 494.25 341.967C490.93 341.967 487.901 338.715 487.611 334.725C487.309 330.576 490.251 327.483 494.25 327.483C498.248 327.483 501.19 330.652 500.888 334.725Z" stroke="black" stroke-linecap="round" stroke-linejoin="round"/>
<path d="M494.25 346.796C487.686 346.796 481.025 350.417 479.792 357.252C479.644 358.075 480.11 358.866 480.972 358.866H507.527C508.39 358.866 508.856 358.075 508.708 357.252C507.474 350.417 500.813 346.796 494.25 346.796Z" stroke="black" stroke-miterlimit="10"/>
<path d="M398.644 470.637C392.27 470.637 385.389 475.655 385.389 483.76C385.389 487.76 386.997 491.125 390.084 493.676C390.116 493.715 390.153 493.751 390.195 493.78C392.486 496.24 392.601 496.708 392.617 497.79C392.624 498.218 392.621 498.345 392.617 498.414L392.612 498.663C392.594 499.202 392.566 500.106 393.695 500.447L403.449 502.571C403.526 502.588 403.606 502.59 403.684 502.576C403.762 502.562 403.836 502.533 403.903 502.491C403.969 502.449 404.027 502.394 404.072 502.33C404.117 502.265 404.149 502.193 404.166 502.116C404.183 502.04 404.185 501.961 404.171 501.884C404.157 501.806 404.128 501.733 404.085 501.667C404.042 501.601 403.987 501.544 403.922 501.499C403.857 501.454 403.784 501.423 403.707 501.406L394 499.293C393.813 499.237 393.798 499.232 393.815 498.699L393.818 498.471C393.818 498.471 393.83 498.378 393.821 497.772C393.798 496.258 393.465 495.527 391.038 492.93C390.992 492.873 390.936 492.826 390.872 492.789C388.033 490.4 386.594 487.362 386.594 483.76C386.594 476.391 392.848 471.83 398.644 471.83C404.568 471.83 410.694 476.293 410.694 483.76C410.694 488.505 408.371 491.121 406.455 492.768C406.388 492.8 406.328 492.844 406.278 492.898C403.823 495.527 403.491 496.258 403.468 497.772V497.895L403.467 497.937C403.463 498.027 403.45 498.078 403.451 498.097C403.404 498.09 403.357 498.082 403.31 498.075L398.255 496.898C398.178 496.88 398.098 496.877 398.02 496.89C397.942 496.902 397.867 496.93 397.8 496.971C397.732 497.013 397.674 497.067 397.628 497.13C397.582 497.194 397.548 497.266 397.53 497.342C397.512 497.418 397.509 497.497 397.522 497.575C397.535 497.652 397.563 497.726 397.605 497.793C397.646 497.86 397.701 497.917 397.765 497.963C397.829 498.009 397.902 498.042 397.979 498.06L402.973 499.219C403.039 499.243 403.639 499.436 404.145 499.084C404.366 498.93 404.622 498.629 404.668 498.051L404.672 497.995L404.674 497.877L404.673 497.846L404.674 497.791C404.69 496.715 404.803 496.248 407.09 493.788C407.101 493.779 407.113 493.771 407.123 493.761C410.336 491.088 411.899 487.816 411.899 483.76C411.899 475.546 405.16 470.637 398.644 470.637Z" fill="black"/>
<path d="M403.464 505.83C403.601 505.83 403.734 505.784 403.84 505.699C403.947 505.615 404.022 505.496 404.051 505.364C404.069 505.288 404.071 505.209 404.058 505.132C404.044 505.054 404.016 504.981 403.974 504.914C403.931 504.848 403.876 504.791 403.812 504.745C403.747 504.7 403.674 504.668 403.597 504.651L393.957 502.487C393.803 502.456 393.642 502.486 393.51 502.571C393.378 502.655 393.285 502.788 393.25 502.94C393.215 503.092 393.242 503.251 393.324 503.384C393.406 503.517 393.538 503.612 393.691 503.65L403.331 505.814C403.374 505.824 403.419 505.83 403.464 505.83Z" fill="black"/>
<path d="M394.558 505.894C394.48 505.873 394.398 505.869 394.318 505.88C394.238 505.892 394.161 505.919 394.091 505.961C394.022 506.002 393.962 506.057 393.915 506.122C393.868 506.188 393.834 506.262 393.816 506.34C393.799 506.418 393.797 506.499 393.811 506.578C393.826 506.657 393.857 506.732 393.901 506.799C393.946 506.866 394.004 506.923 394.071 506.968C394.139 507.012 394.215 507.042 394.294 507.057L402.127 508.796C402.205 508.817 402.287 508.821 402.367 508.81C402.447 508.799 402.524 508.771 402.594 508.73C402.663 508.688 402.723 508.633 402.77 508.568C402.817 508.503 402.851 508.429 402.869 508.35C402.886 508.272 402.888 508.191 402.874 508.112C402.859 508.033 402.828 507.958 402.784 507.891C402.739 507.824 402.681 507.767 402.614 507.723C402.546 507.678 402.47 507.648 402.391 507.633L394.558 505.894Z" fill="black"/>
<mask id="path-9-inside-1" fill="white">
<path d="M382.892 422.51C381.994 423.409 382.186 424.676 382.9 425.389C382.929 425.417 385.8 428.159 389.836 432.196C389.886 432.246 389.944 432.285 390.008 432.312C390.073 432.339 390.142 432.353 390.212 432.353C390.282 432.353 390.351 432.339 390.415 432.312C390.48 432.285 390.538 432.246 390.587 432.196C390.687 432.097 390.742 431.962 390.742 431.821C390.742 431.681 390.687 431.546 390.587 431.446C389.979 430.838 389.4 430.262 388.85 429.717L390.535 428.032C390.632 427.932 390.685 427.798 390.684 427.659C390.683 427.52 390.627 427.387 390.529 427.288C390.431 427.19 390.298 427.134 390.159 427.133C390.02 427.132 389.886 427.185 389.786 427.282L388.096 428.971C387.281 428.166 386.462 427.363 385.642 426.563L389.475 422.73C389.571 422.63 389.625 422.496 389.624 422.357C389.622 422.218 389.567 422.085 389.468 421.986C389.37 421.888 389.237 421.832 389.098 421.831C388.959 421.83 388.825 421.883 388.725 421.98L384.88 425.825C384.1 425.069 383.65 424.64 383.643 424.632C383.419 424.408 383.125 423.778 383.643 423.261L388.945 417.959C389.149 417.751 389.694 417.339 390.292 417.934C390.319 417.963 392.996 421.004 397.083 425.091C397.183 425.188 397.317 425.241 397.456 425.24C397.595 425.239 397.728 425.183 397.827 425.085C397.925 424.986 397.981 424.854 397.982 424.714C397.983 424.575 397.93 424.442 397.833 424.342C393.772 420.281 391.114 417.263 391.065 417.208C390.077 416.222 388.885 416.518 388.195 417.208L382.892 422.51Z"/>
</mask>
<path d="M382.892 422.51C381.994 423.409 382.186 424.676 382.9 425.389C382.929 425.417 385.8 428.159 389.836 432.196C389.886 432.246 389.944 432.285 390.008 432.312C390.073 432.339 390.142 432.353 390.212 432.353C390.282 432.353 390.351 432.339 390.415 432.312C390.48 432.285 390.538 432.246 390.587 432.196C390.687 432.097 390.742 431.962 390.742 431.821C390.742 431.681 390.687 431.546 390.587 431.446C389.979 430.838 389.4 430.262 388.85 429.717L390.535 428.032C390.632 427.932 390.685 427.798 390.684 427.659C390.683 427.52 390.627 427.387 390.529 427.288C390.431 427.19 390.298 427.134 390.159 427.133C390.02 427.132 389.886 427.185 389.786 427.282L388.096 428.971C387.281 428.166 386.462 427.363 385.642 426.563L389.475 422.73C389.571 422.63 389.625 422.496 389.624 422.357C389.622 422.218 389.567 422.085 389.468 421.986C389.37 421.888 389.237 421.832 389.098 421.831C388.959 421.83 388.825 421.883 388.725 421.98L384.88 425.825C384.1 425.069 383.65 424.64 383.643 424.632C383.419 424.408 383.125 423.778 383.643 423.261L388.945 417.959C389.149 417.751 389.694 417.339 390.292 417.934C390.319 417.963 392.996 421.004 397.083 425.091C397.183 425.188 397.317 425.241 397.456 425.24C397.595 425.239 397.728 425.183 397.827 425.085C397.925 424.986 397.981 424.854 397.982 424.714C397.983 424.575 397.93 424.442 397.833 424.342C393.772 420.281 391.114 417.263 391.065 417.208C390.077 416.222 388.885 416.518 388.195 417.208L382.892 422.51Z" fill="black"/>
<path d="M382.9 425.389L381.487 426.804L381.5 426.817L381.513 426.83L382.9 425.389ZM389.836 432.196L391.258 430.789L391.251 430.782L389.836 432.196ZM390.212 432.353V434.353V432.353ZM390.587 432.196L389.173 430.782L389.166 430.789L390.587 432.196ZM390.587 431.446L392.002 430.032L392.001 430.032L390.587 431.446ZM388.85 429.717L387.436 428.303L386.016 429.722L387.442 431.136L388.85 429.717ZM390.535 428.032L391.95 429.446L391.962 429.434L391.974 429.421L390.535 428.032ZM389.786 427.282L388.396 425.843L388.384 425.856L388.371 425.868L389.786 427.282ZM388.096 428.971L386.691 430.394L388.105 431.791L389.511 430.385L388.096 428.971ZM385.642 426.563L384.227 425.149L382.795 426.581L384.246 427.995L385.642 426.563ZM389.475 422.73L390.889 424.144L390.901 424.132L390.913 424.119L389.475 422.73ZM388.725 421.98L387.336 420.541L387.323 420.554L387.311 420.566L388.725 421.98ZM384.88 425.825L383.489 427.262L384.902 428.631L386.294 427.239L384.88 425.825ZM383.643 424.632L382.228 426.046L383.643 424.632ZM383.643 423.261L382.228 421.847H382.228L383.643 423.261ZM388.945 417.959L390.359 419.373L390.364 419.368L390.37 419.362L388.945 417.959ZM390.292 417.934L391.784 416.601L391.745 416.557L391.703 416.516L390.292 417.934ZM397.083 425.091L395.669 426.505L395.681 426.518L395.694 426.53L397.083 425.091ZM397.833 424.342L399.272 422.952L399.259 422.94L399.247 422.927L397.833 424.342ZM391.065 417.208L392.563 415.883L392.522 415.836L392.478 415.792L391.065 417.208ZM388.195 417.208L389.609 418.623L389.609 418.622L388.195 417.208ZM381.477 421.097C379.674 422.902 380.121 425.44 381.487 426.804L384.314 423.974C384.313 423.973 384.31 423.97 384.307 423.965C384.303 423.96 384.299 423.954 384.296 423.947C384.29 423.932 384.289 423.923 384.289 423.923C384.289 423.923 384.289 423.926 384.288 423.931C384.287 423.937 384.286 423.943 384.284 423.948C384.282 423.953 384.281 423.955 384.282 423.952C384.284 423.95 384.291 423.94 384.307 423.924L381.477 421.097ZM381.513 426.83C381.542 426.857 384.4 429.588 388.422 433.61L391.251 430.782C389.225 428.756 387.492 427.055 386.261 425.856C385.645 425.257 385.155 424.783 384.816 424.457C384.495 424.146 384.273 423.934 384.288 423.949L381.513 426.83ZM388.415 433.603C388.65 433.84 388.93 434.029 389.238 434.158L390.779 430.466C390.958 430.541 391.121 430.651 391.258 430.789L388.415 433.603ZM389.238 434.158C389.547 434.286 389.878 434.353 390.212 434.353V430.353C390.406 430.353 390.599 430.391 390.779 430.466L389.238 434.158ZM390.212 434.353C390.546 434.353 390.877 434.286 391.186 434.158L389.645 430.466C389.825 430.391 390.017 430.353 390.212 430.353V434.353ZM391.186 434.158C391.494 434.029 391.774 433.84 392.009 433.603L389.166 430.789C389.302 430.651 389.465 430.541 389.645 430.466L391.186 434.158ZM392.002 433.61C392.476 433.135 392.742 432.492 392.742 431.821H388.742C388.742 431.431 388.897 431.058 389.173 430.782L392.002 433.61ZM392.742 431.821C392.742 431.15 392.476 430.507 392.002 430.032L389.173 432.86C388.897 432.585 388.742 432.211 388.742 431.821H392.742ZM392.001 430.032C391.39 429.421 390.809 428.843 390.259 428.297L387.442 431.136C387.99 431.68 388.567 432.254 389.173 432.86L392.001 430.032ZM390.265 431.131L391.95 429.446L389.121 426.618L387.436 428.303L390.265 431.131ZM391.974 429.421C392.435 428.944 392.69 428.305 392.684 427.641L388.684 427.676C388.681 427.291 388.829 426.92 389.097 426.642L391.974 429.421ZM392.684 427.641C392.678 426.978 392.412 426.343 391.943 425.874L389.115 428.703C388.842 428.43 388.688 428.062 388.684 427.676L392.684 427.641ZM391.943 425.874C391.474 425.405 390.839 425.139 390.176 425.133L390.141 429.133C389.756 429.13 389.387 428.975 389.115 428.703L391.943 425.874ZM390.176 425.133C389.512 425.128 388.873 425.383 388.396 425.843L391.175 428.721C390.898 428.988 390.527 429.136 390.141 429.133L390.176 425.133ZM388.371 425.868L386.682 427.557L389.511 430.385L391.2 428.696L388.371 425.868ZM389.502 427.548C388.683 426.74 387.861 425.934 387.037 425.131L384.246 427.995C385.063 428.792 385.879 429.592 386.691 430.394L389.502 427.548ZM387.056 427.977L390.889 424.144L388.061 421.316L384.227 425.149L387.056 427.977ZM390.913 424.119C391.374 423.642 391.629 423.003 391.624 422.339L387.624 422.374C387.62 421.989 387.769 421.618 388.036 421.34L390.913 424.119ZM391.624 422.339C391.618 421.676 391.352 421.041 390.883 420.572L388.054 423.401C387.782 423.128 387.627 422.76 387.624 422.374L391.624 422.339ZM390.883 420.572C390.414 420.103 389.779 419.837 389.116 419.831L389.081 423.831C388.695 423.828 388.327 423.673 388.054 423.401L390.883 420.572ZM389.116 419.831C388.452 419.826 387.813 420.081 387.336 420.541L390.115 423.419C389.837 423.686 389.466 423.834 389.081 423.831L389.116 419.831ZM387.311 420.566L383.466 424.411L386.294 427.239L390.139 423.394L387.311 420.566ZM386.272 424.389C385.46 423.603 385.051 423.212 385.057 423.218L382.228 426.046C382.249 426.067 382.739 426.535 383.489 427.262L386.272 424.389ZM385.057 423.218C385.163 423.324 385.22 423.416 385.253 423.479C385.288 423.548 385.325 423.643 385.344 423.766C385.362 423.896 385.361 424.066 385.304 424.252C385.245 424.444 385.146 424.587 385.057 424.675L382.228 421.847C381.48 422.595 381.267 423.534 381.386 424.347C381.49 425.053 381.835 425.653 382.228 426.046L385.057 423.218ZM385.057 424.675L390.359 419.373L387.53 416.545L382.228 421.847L385.057 424.675ZM390.37 419.362C390.346 419.386 390.311 419.419 390.255 419.455C390.202 419.491 390.09 419.555 389.922 419.594C389.739 419.636 389.512 419.642 389.281 419.572C389.055 419.504 388.925 419.394 388.882 419.352L391.703 416.516C390.949 415.766 389.972 415.477 389.02 415.697C388.245 415.876 387.733 416.339 387.52 416.556L390.37 419.362ZM388.801 419.266C388.798 419.263 388.982 419.472 389.305 419.829C389.629 420.189 390.101 420.707 390.7 421.352C391.897 422.641 393.605 424.442 395.669 426.505L398.497 423.677C394.451 419.631 391.804 416.623 391.784 416.601L388.801 419.266ZM395.694 426.53C396.171 426.991 396.81 427.246 397.474 427.24L397.439 423.24C397.824 423.237 398.195 423.385 398.473 423.653L395.694 426.53ZM397.474 427.24C398.137 427.234 398.772 426.968 399.241 426.499L396.412 423.671C396.685 423.398 397.053 423.243 397.439 423.24L397.474 427.24ZM399.241 426.499C399.71 426.03 399.976 425.395 399.982 424.732L395.982 424.697C395.985 424.312 396.14 423.943 396.412 423.671L399.241 426.499ZM399.982 424.732C399.987 424.068 399.732 423.429 399.272 422.952L396.394 425.731C396.127 425.454 395.979 425.082 395.982 424.697L399.982 424.732ZM399.247 422.927C395.226 418.907 392.598 415.922 392.563 415.883L389.567 418.533C389.566 418.532 389.586 418.554 389.608 418.579C389.632 418.606 389.666 418.645 389.71 418.694C389.798 418.793 389.925 418.934 390.087 419.115C390.413 419.475 390.883 419.992 391.479 420.634C392.671 421.917 394.368 423.705 396.419 425.756L399.247 422.927ZM392.478 415.792C391.594 414.91 390.489 414.504 389.373 414.585C388.318 414.662 387.414 415.161 386.781 415.794L389.609 418.622C389.619 418.612 389.631 418.603 389.643 418.594C389.654 418.586 389.665 418.58 389.673 418.576C389.689 418.568 389.687 418.573 389.664 418.574C389.652 418.575 389.637 418.575 389.621 418.573C389.604 418.57 389.591 418.566 389.582 418.563C389.573 418.559 389.574 418.558 389.584 418.565C389.595 418.572 389.618 418.59 389.653 418.624L392.478 415.792ZM386.781 415.794L381.478 421.096L384.306 423.925L389.609 418.623L386.781 415.794Z" fill="black" mask="url(#path-9-inside-1)"/>
<path d="M415.413 444.425C415.413 444.425 415.413 444.425 415.413 444.425L415.412 444.426C415.412 444.426 415.413 444.426 415.413 444.425Z" fill="black" stroke="black" stroke-width="2"/>
<mask id="path-12-inside-2" fill="white">
<path d="M382.358 450.275C382.426 450.344 382.511 450.394 382.605 450.418C382.699 450.442 382.797 450.44 382.89 450.412L393.494 447.253C393.579 447.228 393.656 447.182 393.719 447.119L411.841 428.874C411.866 428.849 411.879 428.816 411.898 428.787L415.775 424.91C415.929 424.758 416.051 424.576 416.135 424.375C416.218 424.175 416.261 423.96 416.261 423.742C416.261 423.525 416.218 423.31 416.135 423.11C416.051 422.909 415.929 422.727 415.775 422.574L410.224 417.024C409.6 416.401 408.511 416.401 407.888 417.024L403.923 420.989C403.897 421.015 403.884 421.047 403.865 421.077L385.715 439.228C385.655 439.287 385.611 439.359 385.585 439.439L382.234 449.741C382.204 449.833 382.2 449.931 382.222 450.025C382.244 450.12 382.291 450.206 382.358 450.275ZM404.328 422.113L405.43 423.215L388.969 439.72L387.138 439.304L404.328 422.113ZM389.631 440.559L406.18 423.966L408.764 426.549L392.064 443.034H389.631V440.559ZM410.716 428.502L393.491 445.844L392.879 443.721L409.513 427.299L410.716 428.502ZM386.442 440.233L388.57 440.717V443.564C388.57 443.705 388.626 443.84 388.726 443.939C388.825 444.038 388.96 444.094 389.101 444.094H391.883L392.555 446.427L383.555 449.109L386.442 440.233ZM408.638 417.774C408.751 417.666 408.901 417.606 409.057 417.606C409.213 417.606 409.363 417.666 409.475 417.774L415.026 423.325C415.082 423.38 415.126 423.445 415.156 423.517C415.186 423.589 415.201 423.666 415.201 423.744C415.201 423.822 415.185 423.899 415.155 423.97C415.125 424.042 415.081 424.107 415.025 424.162L411.451 427.738L405.064 421.351L408.638 417.774Z"/>
</mask>
<path d="M382.358 450.275C382.426 450.344 382.511 450.394 382.605 450.418C382.699 450.442 382.797 450.44 382.89 450.412L393.494 447.253C393.579 447.228 393.656 447.182 393.719 447.119L411.841 428.874C411.866 428.849 411.879 428.816 411.898 428.787L415.775 424.91C415.929 424.758 416.051 424.576 416.135 424.375C416.218 424.175 416.261 423.96 416.261 423.742C416.261 423.525 416.218 423.31 416.135 423.11C416.051 422.909 415.929 422.727 415.775 422.574L410.224 417.024C409.6 416.401 408.511 416.401 407.888 417.024L403.923 420.989C403.897 421.015 403.884 421.047 403.865 421.077L385.715 439.228C385.655 439.287 385.611 439.359 385.585 439.439L382.234 449.741C382.204 449.833 382.2 449.931 382.222 450.025C382.244 450.12 382.291 450.206 382.358 450.275ZM404.328 422.113L405.43 423.215L388.969 439.72L387.138 439.304L404.328 422.113ZM389.631 440.559L406.18 423.966L408.764 426.549L392.064 443.034H389.631V440.559ZM410.716 428.502L393.491 445.844L392.879 443.721L409.513 427.299L410.716 428.502ZM386.442 440.233L388.57 440.717V443.564C388.57 443.705 388.626 443.84 388.726 443.939C388.825 444.038 388.96 444.094 389.101 444.094H391.883L392.555 446.427L383.555 449.109L386.442 440.233ZM408.638 417.774C408.751 417.666 408.901 417.606 409.057 417.606C409.213 417.606 409.363 417.666 409.475 417.774L415.026 423.325C415.082 423.38 415.126 423.445 415.156 423.517C415.186 423.589 415.201 423.666 415.201 423.744C415.201 423.822 415.185 423.899 415.155 423.97C415.125 424.042 415.081 424.107 415.025 424.162L411.451 427.738L405.064 421.351L408.638 417.774Z" fill="black"/>
<path d="M382.89 450.412L382.319 448.495L382.315 448.497L382.89 450.412ZM393.494 447.253L392.932 445.334L392.923 445.336L393.494 447.253ZM393.719 447.119L392.3 445.709L392.291 445.717L393.719 447.119ZM411.841 428.874L410.427 427.46L410.422 427.465L411.841 428.874ZM411.898 428.787L410.484 427.373L410.344 427.513L410.234 427.678L411.898 428.787ZM415.775 424.91L414.366 423.491L414.361 423.496L415.775 424.91ZM415.775 422.574L414.361 423.989L414.366 423.994L415.775 422.574ZM410.224 417.024L408.81 418.438L408.81 418.439L410.224 417.024ZM407.888 417.024L406.473 415.61V415.61L407.888 417.024ZM403.923 420.989L405.337 422.403V422.403L403.923 420.989ZM403.865 421.077L405.279 422.491L405.431 422.339L405.547 422.159L403.865 421.077ZM385.715 439.228L387.125 440.646L387.129 440.642L385.715 439.228ZM385.585 439.439L387.487 440.058L387.489 440.053L385.585 439.439ZM382.234 449.741L384.135 450.364L384.136 450.36L382.234 449.741ZM404.328 422.113L405.742 420.699L404.328 419.285L402.914 420.699L404.328 422.113ZM405.43 423.215L406.846 424.627L408.256 423.213L406.844 421.801L405.43 423.215ZM388.969 439.72L388.526 441.67L389.604 441.915L390.385 441.132L388.969 439.72ZM387.138 439.304L385.723 437.89L383.161 440.453L386.695 441.255L387.138 439.304ZM389.631 440.559L388.215 439.146L387.631 439.732V440.559H389.631ZM406.18 423.966L407.595 422.551L406.179 421.135L404.764 422.553L406.18 423.966ZM408.764 426.549L410.169 427.972L411.601 426.558L410.178 425.135L408.764 426.549ZM392.064 443.034V445.034H392.885L393.469 444.457L392.064 443.034ZM389.631 443.034H387.631V445.034H389.631V443.034ZM393.491 445.844L391.569 446.398L392.511 449.668L394.91 447.253L393.491 445.844ZM392.879 443.721L391.474 442.298L390.628 443.133L390.957 444.275L392.879 443.721ZM409.513 427.299L410.928 425.885L409.523 424.479L408.108 425.875L409.513 427.299ZM388.57 440.717H390.57V439.12L389.013 438.767L388.57 440.717ZM391.883 444.094L393.805 443.54L393.388 442.094H391.883V444.094ZM392.555 446.427L393.126 448.344L395.026 447.778L394.477 445.873L392.555 446.427ZM383.555 449.109L381.653 448.49L380.474 452.114L384.126 451.026L383.555 449.109ZM409.057 417.606V419.606V417.606ZM409.475 417.774L410.889 416.36L410.874 416.345L410.859 416.33L409.475 417.774ZM415.026 423.325L413.612 424.739L413.62 424.748L415.026 423.325ZM415.025 424.162L413.623 422.736L413.617 422.742L413.611 422.748L415.025 424.162ZM411.451 427.738L410.036 429.152L411.451 430.566L412.865 429.152L411.451 427.738ZM405.064 421.351L403.649 419.937L402.236 421.351L403.65 422.765L405.064 421.351ZM380.93 451.675C381.253 452.004 381.659 452.24 382.106 452.355L383.104 448.481C383.363 448.548 383.6 448.684 383.787 448.876L380.93 451.675ZM382.106 452.355C382.553 452.47 383.023 452.46 383.465 452.328L382.315 448.497C382.571 448.42 382.844 448.414 383.104 448.481L382.106 452.355ZM383.461 452.329L394.065 449.17L392.923 445.336L382.319 448.495L383.461 452.329ZM394.056 449.173C394.469 449.052 394.844 448.827 395.146 448.52L392.291 445.717C392.469 445.537 392.689 445.405 392.932 445.334L394.056 449.173ZM395.138 448.528L413.26 430.284L410.422 427.465L392.3 445.709L395.138 448.528ZM413.255 430.288C413.45 430.094 413.562 429.904 413.599 429.841C413.609 429.823 413.617 429.808 413.621 429.802C413.627 429.792 413.624 429.798 413.623 429.799C413.619 429.805 413.596 429.846 413.562 429.897L410.234 427.678C410.19 427.743 410.159 427.799 410.147 427.82C410.143 427.826 410.141 427.831 410.139 427.834C410.135 427.841 410.138 427.834 410.136 427.839C410.135 427.84 410.139 427.833 410.145 427.823C410.164 427.79 410.257 427.629 410.427 427.46L413.255 430.288ZM413.312 430.202L417.189 426.325L414.361 423.496L410.484 427.373L413.312 430.202ZM417.184 426.33C417.525 425.991 417.796 425.588 417.981 425.144L414.289 423.606C414.307 423.563 414.333 423.524 414.366 423.491L417.184 426.33ZM417.981 425.144C418.166 424.7 418.261 424.223 418.261 423.742H414.261C414.261 423.696 414.271 423.649 414.289 423.606L417.981 425.144ZM418.261 423.742C418.261 423.261 418.166 422.785 417.981 422.341L414.289 423.879C414.271 423.835 414.261 423.789 414.261 423.742H418.261ZM417.981 422.341C417.796 421.897 417.525 421.494 417.184 421.155L414.366 423.994C414.333 423.961 414.307 423.922 414.289 423.879L417.981 422.341ZM417.189 421.16L411.638 415.61L408.81 418.439L414.361 423.989L417.189 421.16ZM411.638 415.61C410.233 414.205 407.878 414.205 406.473 415.61L409.302 418.438C409.198 418.542 409.098 418.557 409.056 418.557C409.013 418.557 408.913 418.542 408.81 418.438L411.638 415.61ZM406.473 415.61L402.509 419.575L405.337 422.403L409.302 418.438L406.473 415.61ZM402.509 419.575C402.323 419.76 402.214 419.939 402.174 420.007C402.156 420.036 402.135 420.074 402.142 420.062C402.142 420.062 402.146 420.054 402.152 420.044C402.159 420.033 402.169 420.016 402.182 419.996L405.547 422.159C405.581 422.105 405.607 422.061 405.615 422.047C405.63 422.02 405.617 422.042 405.609 422.056C405.586 422.094 405.497 422.244 405.337 422.403L402.509 419.575ZM402.45 419.663L384.3 437.814L387.129 440.642L405.279 422.491L402.45 419.663ZM384.304 437.81C384.019 438.094 383.805 438.442 383.682 438.825L387.489 440.053C387.417 440.277 387.292 440.48 387.125 440.646L384.304 437.81ZM383.683 438.82L380.333 449.122L384.136 450.36L387.487 440.058L383.683 438.82ZM380.334 449.118C380.19 449.557 380.169 450.027 380.274 450.478L384.17 449.573C384.231 449.835 384.219 450.109 384.135 450.364L380.334 449.118ZM380.274 450.478C380.378 450.928 380.604 451.341 380.927 451.672L383.79 448.879C383.978 449.071 384.109 449.311 384.17 449.573L380.274 450.478ZM402.914 423.527L404.015 424.629L406.844 421.801L405.742 420.699L402.914 423.527ZM404.014 421.803L387.553 438.308L390.385 441.132L406.846 424.627L404.014 421.803ZM389.412 437.77L387.58 437.354L386.695 441.255L388.526 441.67L389.412 437.77ZM388.552 440.719L405.742 423.527L402.914 420.699L385.723 437.89L388.552 440.719ZM391.047 441.971L407.597 425.378L404.764 422.553L388.215 439.146L391.047 441.971ZM404.766 425.38L407.349 427.963L410.178 425.135L407.595 422.551L404.766 425.38ZM407.359 425.126L390.659 441.611L393.469 444.457L410.169 427.972L407.359 425.126ZM392.064 441.034H389.631V445.034H392.064V441.034ZM391.631 443.034V440.559H387.631V443.034H391.631ZM409.297 427.093L392.072 444.434L394.91 447.253L412.135 429.912L409.297 427.093ZM395.412 445.29L394.801 443.167L390.957 444.275L391.569 446.398L395.412 445.29ZM394.284 445.144L410.918 428.722L408.108 425.875L391.474 442.298L394.284 445.144ZM408.098 428.712L409.301 429.916L412.131 427.088L410.928 425.885L408.098 428.712ZM385.999 442.184L388.127 442.667L389.013 438.767L386.885 438.283L385.999 442.184ZM386.57 440.717V443.564H390.57V440.717H386.57ZM386.57 443.564C386.57 444.235 386.837 444.879 387.311 445.353L390.14 442.525C390.415 442.8 390.57 443.174 390.57 443.564H386.57ZM387.311 445.353C387.786 445.828 388.429 446.094 389.101 446.094V442.094C389.49 442.094 389.864 442.249 390.14 442.525L387.311 445.353ZM389.101 446.094H391.883V442.094H389.101V446.094ZM389.961 444.648L390.634 446.981L394.477 445.873L393.805 443.54L389.961 444.648ZM391.984 444.51L382.984 447.192L384.126 451.026L393.126 448.344L391.984 444.51ZM385.457 449.728L388.344 440.852L384.54 439.615L381.653 448.49L385.457 449.728ZM410.023 419.218C409.763 419.467 409.417 419.606 409.057 419.606V415.606C408.385 415.606 407.739 415.865 407.254 416.33L410.023 419.218ZM409.057 419.606C408.697 419.606 408.351 419.467 408.091 419.218L410.859 416.33C410.374 415.865 409.729 415.606 409.057 415.606V419.606ZM408.061 419.188L413.612 424.739L416.441 421.911L410.889 416.36L408.061 419.188ZM413.62 424.748C413.487 424.616 413.382 424.459 413.31 424.287L417.002 422.747C416.87 422.431 416.676 422.144 416.432 421.903L413.62 424.748ZM413.31 424.287C413.238 424.114 413.201 423.928 413.201 423.741L417.201 423.746C417.201 423.403 417.134 423.064 417.002 422.747L413.31 424.287ZM413.201 423.741C413.201 423.554 413.238 423.369 413.311 423.196L416.999 424.745C417.132 424.429 417.2 424.089 417.201 423.746L413.201 423.741ZM413.311 423.196C413.383 423.024 413.489 422.867 413.623 422.736L416.428 425.588C416.672 425.347 416.866 425.061 416.999 424.745L413.311 423.196ZM413.611 422.748L410.036 426.324L412.865 429.152L416.44 425.576L413.611 422.748ZM412.865 426.323L406.478 419.937L403.65 422.765L410.036 429.152L412.865 426.323ZM406.478 422.765L410.053 419.188L407.224 416.36L403.649 419.937L406.478 422.765Z" fill="black" mask="url(#path-12-inside-2)"/>
<path d="M398.644 381.645C404.23 381.645 408.759 377.117 408.759 371.531C408.759 365.944 404.23 361.416 398.644 361.416C393.058 361.416 388.53 365.944 388.53 371.531C388.53 377.117 393.058 381.645 398.644 381.645Z" stroke="black" stroke-linecap="round" stroke-linejoin="round"/>
<path d="M389.766 376.889L382.208 390.495L389.072 390.462C389.292 390.461 389.508 390.517 389.7 390.625C389.891 390.733 390.051 390.889 390.164 391.078L393.587 396.817L400.567 381.461" stroke="black" stroke-linecap="round" stroke-linejoin="round"/>
<path d="M407.379 376.588L415.081 390.495L408.217 390.462C407.997 390.461 407.781 390.517 407.589 390.626C407.397 390.734 407.237 390.89 407.125 391.079L403.702 396.817L398.644 385.691" stroke="black" stroke-linecap="round" stroke-linejoin="round"/>
<path d="M398.644 376.588C401.437 376.588 403.702 374.324 403.702 371.53C403.702 368.737 401.437 366.473 398.644 366.473C395.851 366.473 393.587 368.737 393.587 371.53C393.587 374.324 395.851 376.588 398.644 376.588Z" stroke="black" stroke-linecap="round" stroke-linejoin="round"/>
<path d="M436.289 374.671C456.163 371.747 464.919 376.792 487.188 374.671" stroke="black"/>
<path d="M436.289 382.238C454.093 380.136 461.937 383.763 481.886 382.238" stroke="black"/>
<path d="M438.409 436.174C460.678 436.175 468.101 434.054 489.309 436.174" stroke="black"/>
<path d="M438.409 426.775C456.214 424.672 464.058 428.3 484.007 426.775" stroke="black"/>
<path d="M439.47 481.772C459.344 478.848 462.268 483.893 484.537 481.772" stroke="black"/>
<path d="M439.47 489.339C458.557 491.316 472.342 489.339 492.49 489.339" stroke="black"/>
<path d="M439.47 498.208C452.449 500.594 461.823 498.208 475.523 498.208" stroke="black"/>
<path d="M437.525 302.475C438.892 303.842 441.108 303.842 442.475 302.475L464.749 280.201C466.116 278.834 466.116 276.618 464.749 275.251C463.382 273.884 461.166 273.884 459.799 275.251L440 295.05L420.201 275.251C418.834 273.884 416.618 273.884 415.251 275.251C413.884 276.618 413.884 278.834 415.251 280.201L437.525 302.475ZM436.5 197L436.5 300L443.5 300L443.5 197L436.5 197Z" fill="black"/>
<path d="M317.569 25.358C319.373 25.358 320.737 26.0547 321.661 27.448C322.599 28.8413 323.069 30.8067 323.069 33.344C323.069 35.896 322.599 37.876 321.661 39.284C320.737 40.6773 319.373 41.374 317.569 41.374C315.765 41.374 314.393 40.6773 313.455 39.284C312.531 37.876 312.069 35.896 312.069 33.344C312.069 30.8067 312.531 28.8413 313.455 27.448C314.393 26.0547 315.765 25.358 317.569 25.358ZM317.569 27.888C316.835 27.888 316.293 28.3133 315.941 29.164C315.603 30 315.435 31.3933 315.435 33.344C315.435 35.3533 315.603 36.776 315.941 37.612C316.293 38.448 316.835 38.866 317.569 38.866C318.317 38.866 318.852 38.448 319.175 37.612C319.512 36.776 319.681 35.3533 319.681 33.344C319.681 31.364 319.505 29.9633 319.153 29.142C318.815 28.306 318.287 27.888 317.569 27.888ZM317.547 31.98C317.957 31.98 318.302 32.1193 318.581 32.398C318.859 32.6767 318.999 33.014 318.999 33.41C318.999 33.8207 318.859 34.1653 318.581 34.444C318.302 34.7227 317.957 34.862 317.547 34.862C317.136 34.862 316.791 34.7227 316.513 34.444C316.249 34.1653 316.117 33.8207 316.117 33.41C316.117 33.014 316.249 32.6767 316.513 32.398C316.791 32.1193 317.136 31.98 317.547 31.98ZM336.282 38.36V41H326.382V38.36H330.056V29.164L326.91 31.144L325.436 28.746L330.364 25.754H333.444V38.36H336.282ZM349.474 38.36V41H339.574V38.36H343.248V29.164L340.102 31.144L338.628 28.746L343.556 25.754H346.636V38.36H349.474ZM357.143 25.358C358.947 25.358 360.311 26.0547 361.235 27.448C362.174 28.8413 362.643 30.8067 362.643 33.344C362.643 35.896 362.174 37.876 361.235 39.284C360.311 40.6773 358.947 41.374 357.143 41.374C355.339 41.374 353.968 40.6773 353.029 39.284C352.105 37.876 351.643 35.896 351.643 33.344C351.643 30.8067 352.105 28.8413 353.029 27.448C353.968 26.0547 355.339 25.358 357.143 25.358ZM357.143 27.888C356.41 27.888 355.867 28.3133 355.515 29.164C355.178 30 355.009 31.3933 355.009 33.344C355.009 35.3533 355.178 36.776 355.515 37.612C355.867 38.448 356.41 38.866 357.143 38.866C357.891 38.866 358.426 38.448 358.749 37.612C359.086 36.776 359.255 35.3533 359.255 33.344C359.255 31.364 359.079 29.9633 358.727 29.142C358.39 28.306 357.862 27.888 357.143 27.888ZM357.121 31.98C357.532 31.98 357.876 32.1193 358.155 32.398C358.434 32.6767 358.573 33.014 358.573 33.41C358.573 33.8207 358.434 34.1653 358.155 34.444C357.876 34.7227 357.532 34.862 357.121 34.862C356.71 34.862 356.366 34.7227 356.087 34.444C355.823 34.1653 355.691 33.8207 355.691 33.41C355.691 33.014 355.823 32.6767 356.087 32.398C356.366 32.1193 356.71 31.98 357.121 31.98ZM370.334 25.358C372.138 25.358 373.502 26.0547 374.426 27.448C375.365 28.8413 375.834 30.8067 375.834 33.344C375.834 35.896 375.365 37.876 374.426 39.284C373.502 40.6773 372.138 41.374 370.334 41.374C368.53 41.374 367.159 40.6773 366.22 39.284C365.296 37.876 364.834 35.896 364.834 33.344C364.834 30.8067 365.296 28.8413 366.22 27.448C367.159 26.0547 368.53 25.358 370.334 25.358ZM370.334 27.888C369.601 27.888 369.058 28.3133 368.706 29.164C368.369 30 368.2 31.3933 368.2 33.344C368.2 35.3533 368.369 36.776 368.706 37.612C369.058 38.448 369.601 38.866 370.334 38.866C371.082 38.866 371.618 38.448 371.94 37.612C372.278 36.776 372.446 35.3533 372.446 33.344C372.446 31.364 372.27 29.9633 371.918 29.142C371.581 28.306 371.053 27.888 370.334 27.888ZM370.312 31.98C370.723 31.98 371.068 32.1193 371.346 32.398C371.625 32.6767 371.764 33.014 371.764 33.41C371.764 33.8207 371.625 34.1653 371.346 34.444C371.068 34.7227 370.723 34.862 370.312 34.862C369.902 34.862 369.557 34.7227 369.278 34.444C369.014 34.1653 368.882 33.8207 368.882 33.41C368.882 33.014 369.014 32.6767 369.278 32.398C369.557 32.1193 369.902 31.98 370.312 31.98ZM389.048 38.36V41H379.148V38.36H382.822V29.164L379.676 31.144L378.202 28.746L383.13 25.754H386.21V38.36H389.048ZM396.717 25.358C398.521 25.358 399.885 26.0547 400.809 27.448C401.748 28.8413 402.217 30.8067 402.217 33.344C402.217 35.896 401.748 37.876 400.809 39.284C399.885 40.6773 398.521 41.374 396.717 41.374C394.913 41.374 393.542 40.6773 392.603 39.284C391.679 37.876 391.217 35.896 391.217 33.344C391.217 30.8067 391.679 28.8413 392.603 27.448C393.542 26.0547 394.913 25.358 396.717 25.358ZM396.717 27.888C395.984 27.888 395.441 28.3133 395.089 29.164C394.752 30 394.583 31.3933 394.583 33.344C394.583 35.3533 394.752 36.776 395.089 37.612C395.441 38.448 395.984 38.866 396.717 38.866C397.465 38.866 398.001 38.448 398.323 37.612C398.661 36.776 398.829 35.3533 398.829 33.344C398.829 31.364 398.653 29.9633 398.301 29.142C397.964 28.306 397.436 27.888 396.717 27.888ZM396.695 31.98C397.106 31.98 397.451 32.1193 397.729 32.398C398.008 32.6767 398.147 33.014 398.147 33.41C398.147 33.8207 398.008 34.1653 397.729 34.444C397.451 34.7227 397.106 34.862 396.695 34.862C396.285 34.862 395.94 34.7227 395.661 34.444C395.397 34.1653 395.265 33.8207 395.265 33.41C395.265 33.014 395.397 32.6767 395.661 32.398C395.94 32.1193 396.285 31.98 396.695 31.98ZM409.909 25.358C411.713 25.358 413.077 26.0547 414.001 27.448C414.939 28.8413 415.409 30.8067 415.409 33.344C415.409 35.896 414.939 37.876 414.001 39.284C413.077 40.6773 411.713 41.374 409.909 41.374C408.105 41.374 406.733 40.6773 405.795 39.284C404.871 37.876 404.409 35.896 404.409 33.344C404.409 30.8067 404.871 28.8413 405.795 27.448C406.733 26.0547 408.105 25.358 409.909 25.358ZM409.909 27.888C409.175 27.888 408.633 28.3133 408.281 29.164C407.943 30 407.775 31.3933 407.775 33.344C407.775 35.3533 407.943 36.776 408.281 37.612C408.633 38.448 409.175 38.866 409.909 38.866C410.657 38.866 411.192 38.448 411.515 37.612C411.852 36.776 412.021 35.3533 412.021 33.344C412.021 31.364 411.845 29.9633 411.493 29.142C411.155 28.306 410.627 27.888 409.909 27.888ZM409.887 31.98C410.297 31.98 410.642 32.1193 410.921 32.398C411.199 32.6767 411.339 33.014 411.339 33.41C411.339 33.8207 411.199 34.1653 410.921 34.444C410.642 34.7227 410.297 34.862 409.887 34.862C409.476 34.862 409.131 34.7227 408.853 34.444C408.589 34.1653 408.457 33.8207 408.457 33.41C408.457 33.014 408.589 32.6767 408.853 32.398C409.131 32.1193 409.476 31.98 409.887 31.98ZM423.1 25.358C424.904 25.358 426.268 26.0547 427.192 27.448C428.131 28.8413 428.6 30.8067 428.6 33.344C428.6 35.896 428.131 37.876 427.192 39.284C426.268 40.6773 424.904 41.374 423.1 41.374C421.296 41.374 419.925 40.6773 418.986 39.284C418.062 37.876 417.6 35.896 417.6 33.344C417.6 30.8067 418.062 28.8413 418.986 27.448C419.925 26.0547 421.296 25.358 423.1 25.358ZM423.1 27.888C422.367 27.888 421.824 28.3133 421.472 29.164C421.135 30 420.966 31.3933 420.966 33.344C420.966 35.3533 421.135 36.776 421.472 37.612C421.824 38.448 422.367 38.866 423.1 38.866C423.848 38.866 424.383 38.448 424.706 37.612C425.043 36.776 425.212 35.3533 425.212 33.344C425.212 31.364 425.036 29.9633 424.684 29.142C424.347 28.306 423.819 27.888 423.1 27.888ZM423.078 31.98C423.489 31.98 423.833 32.1193 424.112 32.398C424.391 32.6767 424.53 33.014 424.53 33.41C424.53 33.8207 424.391 34.1653 424.112 34.444C423.833 34.7227 423.489 34.862 423.078 34.862C422.667 34.862 422.323 34.7227 422.044 34.444C421.78 34.1653 421.648 33.8207 421.648 33.41C421.648 33.014 421.78 32.6767 422.044 32.398C422.323 32.1193 422.667 31.98 423.078 31.98ZM441.813 38.36V41H431.913V38.36H435.587V29.164L432.441 31.144L430.967 28.746L435.895 25.754H438.975V38.36H441.813ZM455.005 38.36V41H445.105V38.36H448.779V29.164L445.633 31.144L444.159 28.746L449.087 25.754H452.167V38.36H455.005ZM462.674 25.358C464.478 25.358 465.842 26.0547 466.766 27.448C467.705 28.8413 468.174 30.8067 468.174 33.344C468.174 35.896 467.705 37.876 466.766 39.284C465.842 40.6773 464.478 41.374 462.674 41.374C460.87 41.374 459.499 40.6773 458.56 39.284C457.636 37.876 457.174 35.896 457.174 33.344C457.174 30.8067 457.636 28.8413 458.56 27.448C459.499 26.0547 460.87 25.358 462.674 25.358ZM462.674 27.888C461.941 27.888 461.398 28.3133 461.046 29.164C460.709 30 460.54 31.3933 460.54 33.344C460.54 35.3533 460.709 36.776 461.046 37.612C461.398 38.448 461.941 38.866 462.674 38.866C463.422 38.866 463.958 38.448 464.28 37.612C464.618 36.776 464.786 35.3533 464.786 33.344C464.786 31.364 464.61 29.9633 464.258 29.142C463.921 28.306 463.393 27.888 462.674 27.888ZM462.652 31.98C463.063 31.98 463.408 32.1193 463.686 32.398C463.965 32.6767 464.104 33.014 464.104 33.41C464.104 33.8207 463.965 34.1653 463.686 34.444C463.408 34.7227 463.063 34.862 462.652 34.862C462.242 34.862 461.897 34.7227 461.618 34.444C461.354 34.1653 461.222 33.8207 461.222 33.41C461.222 33.014 461.354 32.6767 461.618 32.398C461.897 32.1193 462.242 31.98 462.652 31.98ZM475.866 25.358C477.67 25.358 479.034 26.0547 479.958 27.448C480.896 28.8413 481.366 30.8067 481.366 33.344C481.366 35.896 480.896 37.876 479.958 39.284C479.034 40.6773 477.67 41.374 475.866 41.374C474.062 41.374 472.69 40.6773 471.752 39.284C470.828 37.876 470.366 35.896 470.366 33.344C470.366 30.8067 470.828 28.8413 471.752 27.448C472.69 26.0547 474.062 25.358 475.866 25.358ZM475.866 27.888C475.132 27.888 474.59 28.3133 474.238 29.164C473.9 30 473.732 31.3933 473.732 33.344C473.732 35.3533 473.9 36.776 474.238 37.612C474.59 38.448 475.132 38.866 475.866 38.866C476.614 38.866 477.149 38.448 477.472 37.612C477.809 36.776 477.978 35.3533 477.978 33.344C477.978 31.364 477.802 29.9633 477.45 29.142C477.112 28.306 476.584 27.888 475.866 27.888ZM475.844 31.98C476.254 31.98 476.599 32.1193 476.878 32.398C477.156 32.6767 477.296 33.014 477.296 33.41C477.296 33.8207 477.156 34.1653 476.878 34.444C476.599 34.7227 476.254 34.862 475.844 34.862C475.433 34.862 475.088 34.7227 474.81 34.444C474.546 34.1653 474.414 33.8207 474.414 33.41C474.414 33.014 474.546 32.6767 474.81 32.398C475.088 32.1193 475.433 31.98 475.844 31.98ZM489.057 25.358C490.861 25.358 492.225 26.0547 493.149 27.448C494.088 28.8413 494.557 30.8067 494.557 33.344C494.557 35.896 494.088 37.876 493.149 39.284C492.225 40.6773 490.861 41.374 489.057 41.374C487.253 41.374 485.882 40.6773 484.943 39.284C484.019 37.876 483.557 35.896 483.557 33.344C483.557 30.8067 484.019 28.8413 484.943 27.448C485.882 26.0547 487.253 25.358 489.057 25.358ZM489.057 27.888C488.324 27.888 487.781 28.3133 487.429 29.164C487.092 30 486.923 31.3933 486.923 33.344C486.923 35.3533 487.092 36.776 487.429 37.612C487.781 38.448 488.324 38.866 489.057 38.866C489.805 38.866 490.34 38.448 490.663 37.612C491 36.776 491.169 35.3533 491.169 33.344C491.169 31.364 490.993 29.9633 490.641 29.142C490.304 28.306 489.776 27.888 489.057 27.888ZM489.035 31.98C489.446 31.98 489.79 32.1193 490.069 32.398C490.348 32.6767 490.487 33.014 490.487 33.41C490.487 33.8207 490.348 34.1653 490.069 34.444C489.79 34.7227 489.446 34.862 489.035 34.862C488.624 34.862 488.28 34.7227 488.001 34.444C487.737 34.1653 487.605 33.8207 487.605 33.41C487.605 33.014 487.737 32.6767 488.001 32.398C488.28 32.1193 488.624 31.98 489.035 31.98ZM502.248 25.358C504.052 25.358 505.416 26.0547 506.34 27.448C507.279 28.8413 507.748 30.8067 507.748 33.344C507.748 35.896 507.279 37.876 506.34 39.284C505.416 40.6773 504.052 41.374 502.248 41.374C500.444 41.374 499.073 40.6773 498.134 39.284C497.21 37.876 496.748 35.896 496.748 33.344C496.748 30.8067 497.21 28.8413 498.134 27.448C499.073 26.0547 500.444 25.358 502.248 25.358ZM502.248 27.888C501.515 27.888 500.972 28.3133 500.62 29.164C500.283 30 500.114 31.3933 500.114 33.344C500.114 35.3533 500.283 36.776 500.62 37.612C500.972 38.448 501.515 38.866 502.248 38.866C502.996 38.866 503.532 38.448 503.854 37.612C504.192 36.776 504.36 35.3533 504.36 33.344C504.36 31.364 504.184 29.9633 503.832 29.142C503.495 28.306 502.967 27.888 502.248 27.888ZM502.226 31.98C502.637 31.98 502.982 32.1193 503.26 32.398C503.539 32.6767 503.678 33.014 503.678 33.41C503.678 33.8207 503.539 34.1653 503.26 34.444C502.982 34.7227 502.637 34.862 502.226 34.862C501.816 34.862 501.471 34.7227 501.192 34.444C500.928 34.1653 500.796 33.8207 500.796 33.41C500.796 33.014 500.928 32.6767 501.192 32.398C501.471 32.1193 501.816 31.98 502.226 31.98ZM520.962 38.36V41H511.062V38.36H514.736V29.164L511.59 31.144L510.116 28.746L515.044 25.754H518.124V38.36H520.962ZM317.569 51.358C319.373 51.358 320.737 52.0547 321.661 53.448C322.599 54.8413 323.069 56.8067 323.069 59.344C323.069 61.896 322.599 63.876 321.661 65.284C320.737 66.6773 319.373 67.374 317.569 67.374C315.765 67.374 314.393 66.6773 313.455 65.284C312.531 63.876 312.069 61.896 312.069 59.344C312.069 56.8067 312.531 54.8413 313.455 53.448C314.393 52.0547 315.765 51.358 317.569 51.358ZM317.569 53.888C316.835 53.888 316.293 54.3133 315.941 55.164C315.603 56 315.435 57.3933 315.435 59.344C315.435 61.3533 315.603 62.776 315.941 63.612C316.293 64.448 316.835 64.866 317.569 64.866C318.317 64.866 318.852 64.448 319.175 63.612C319.512 62.776 319.681 61.3533 319.681 59.344C319.681 57.364 319.505 55.9633 319.153 55.142C318.815 54.306 318.287 53.888 317.569 53.888ZM317.547 57.98C317.957 57.98 318.302 58.1193 318.581 58.398C318.859 58.6767 318.999 59.014 318.999 59.41C318.999 59.8207 318.859 60.1653 318.581 60.444C318.302 60.7227 317.957 60.862 317.547 60.862C317.136 60.862 316.791 60.7227 316.513 60.444C316.249 60.1653 316.117 59.8207 316.117 59.41C316.117 59.014 316.249 58.6767 316.513 58.398C316.791 58.1193 317.136 57.98 317.547 57.98ZM336.282 64.36V67H326.382V64.36H330.056V55.164L326.91 57.144L325.436 54.746L330.364 51.754H333.444V64.36H336.282ZM349.474 64.36V67H339.574V64.36H343.248V55.164L340.102 57.144L338.628 54.746L343.556 51.754H346.636V64.36H349.474ZM362.665 64.36V67H352.765V64.36H356.439V55.164L353.293 57.144L351.819 54.746L356.747 51.754H359.827V64.36H362.665ZM370.334 51.358C372.138 51.358 373.502 52.0547 374.426 53.448C375.365 54.8413 375.834 56.8067 375.834 59.344C375.834 61.896 375.365 63.876 374.426 65.284C373.502 66.6773 372.138 67.374 370.334 67.374C368.53 67.374 367.159 66.6773 366.22 65.284C365.296 63.876 364.834 61.896 364.834 59.344C364.834 56.8067 365.296 54.8413 366.22 53.448C367.159 52.0547 368.53 51.358 370.334 51.358ZM370.334 53.888C369.601 53.888 369.058 54.3133 368.706 55.164C368.369 56 368.2 57.3933 368.2 59.344C368.2 61.3533 368.369 62.776 368.706 63.612C369.058 64.448 369.601 64.866 370.334 64.866C371.082 64.866 371.618 64.448 371.94 63.612C372.278 62.776 372.446 61.3533 372.446 59.344C372.446 57.364 372.27 55.9633 371.918 55.142C371.581 54.306 371.053 53.888 370.334 53.888ZM370.312 57.98C370.723 57.98 371.068 58.1193 371.346 58.398C371.625 58.6767 371.764 59.014 371.764 59.41C371.764 59.8207 371.625 60.1653 371.346 60.444C371.068 60.7227 370.723 60.862 370.312 60.862C369.902 60.862 369.557 60.7227 369.278 60.444C369.014 60.1653 368.882 59.8207 368.882 59.41C368.882 59.014 369.014 58.6767 369.278 58.398C369.557 58.1193 369.902 57.98 370.312 57.98ZM389.048 64.36V67H379.148V64.36H382.822V55.164L379.676 57.144L378.202 54.746L383.13 51.754H386.21V64.36H389.048ZM396.717 51.358C398.521 51.358 399.885 52.0547 400.809 53.448C401.748 54.8413 402.217 56.8067 402.217 59.344C402.217 61.896 401.748 63.876 400.809 65.284C399.885 66.6773 398.521 67.374 396.717 67.374C394.913 67.374 393.542 66.6773 392.603 65.284C391.679 63.876 391.217 61.896 391.217 59.344C391.217 56.8067 391.679 54.8413 392.603 53.448C393.542 52.0547 394.913 51.358 396.717 51.358ZM396.717 53.888C395.984 53.888 395.441 54.3133 395.089 55.164C394.752 56 394.583 57.3933 394.583 59.344C394.583 61.3533 394.752 62.776 395.089 63.612C395.441 64.448 395.984 64.866 396.717 64.866C397.465 64.866 398.001 64.448 398.323 63.612C398.661 62.776 398.829 61.3533 398.829 59.344C398.829 57.364 398.653 55.9633 398.301 55.142C397.964 54.306 397.436 53.888 396.717 53.888ZM396.695 57.98C397.106 57.98 397.451 58.1193 397.729 58.398C398.008 58.6767 398.147 59.014 398.147 59.41C398.147 59.8207 398.008 60.1653 397.729 60.444C397.451 60.7227 397.106 60.862 396.695 60.862C396.285 60.862 395.94 60.7227 395.661 60.444C395.397 60.1653 395.265 59.8207 395.265 59.41C395.265 59.014 395.397 58.6767 395.661 58.398C395.94 58.1193 396.285 57.98 396.695 57.98ZM409.909 51.358C411.713 51.358 413.077 52.0547 414.001 53.448C414.939 54.8413 415.409 56.8067 415.409 59.344C415.409 61.896 414.939 63.876 414.001 65.284C413.077 66.6773 411.713 67.374 409.909 67.374C408.105 67.374 406.733 66.6773 405.795 65.284C404.871 63.876 404.409 61.896 404.409 59.344C404.409 56.8067 404.871 54.8413 405.795 53.448C406.733 52.0547 408.105 51.358 409.909 51.358ZM409.909 53.888C409.175 53.888 408.633 54.3133 408.281 55.164C407.943 56 407.775 57.3933 407.775 59.344C407.775 61.3533 407.943 62.776 408.281 63.612C408.633 64.448 409.175 64.866 409.909 64.866C410.657 64.866 411.192 64.448 411.515 63.612C411.852 62.776 412.021 61.3533 412.021 59.344C412.021 57.364 411.845 55.9633 411.493 55.142C411.155 54.306 410.627 53.888 409.909 53.888ZM409.887 57.98C410.297 57.98 410.642 58.1193 410.921 58.398C411.199 58.6767 411.339 59.014 411.339 59.41C411.339 59.8207 411.199 60.1653 410.921 60.444C410.642 60.7227 410.297 60.862 409.887 60.862C409.476 60.862 409.131 60.7227 408.853 60.444C408.589 60.1653 408.457 59.8207 408.457 59.41C408.457 59.014 408.589 58.6767 408.853 58.398C409.131 58.1193 409.476 57.98 409.887 57.98ZM423.1 51.358C424.904 51.358 426.268 52.0547 427.192 53.448C428.131 54.8413 428.6 56.8067 428.6 59.344C428.6 61.896 428.131 63.876 427.192 65.284C426.268 66.6773 424.904 67.374 423.1 67.374C421.296 67.374 419.925 66.6773 418.986 65.284C418.062 63.876 417.6 61.896 417.6 59.344C417.6 56.8067 418.062 54.8413 418.986 53.448C419.925 52.0547 421.296 51.358 423.1 51.358ZM423.1 53.888C422.367 53.888 421.824 54.3133 421.472 55.164C421.135 56 420.966 57.3933 420.966 59.344C420.966 61.3533 421.135 62.776 421.472 63.612C421.824 64.448 422.367 64.866 423.1 64.866C423.848 64.866 424.383 64.448 424.706 63.612C425.043 62.776 425.212 61.3533 425.212 59.344C425.212 57.364 425.036 55.9633 424.684 55.142C424.347 54.306 423.819 53.888 423.1 53.888ZM423.078 57.98C423.489 57.98 423.833 58.1193 424.112 58.398C424.391 58.6767 424.53 59.014 424.53 59.41C424.53 59.8207 424.391 60.1653 424.112 60.444C423.833 60.7227 423.489 60.862 423.078 60.862C422.667 60.862 422.323 60.7227 422.044 60.444C421.78 60.1653 421.648 59.8207 421.648 59.41C421.648 59.014 421.78 58.6767 422.044 58.398C422.323 58.1193 422.667 57.98 423.078 57.98ZM441.813 64.36V67H431.913V64.36H435.587V55.164L432.441 57.144L430.967 54.746L435.895 51.754H438.975V64.36H441.813ZM455.005 64.36V67H445.105V64.36H448.779V55.164L445.633 57.144L444.159 54.746L449.087 51.754H452.167V64.36H455.005ZM462.674 51.358C464.478 51.358 465.842 52.0547 466.766 53.448C467.705 54.8413 468.174 56.8067 468.174 59.344C468.174 61.896 467.705 63.876 466.766 65.284C465.842 66.6773 464.478 67.374 462.674 67.374C460.87 67.374 459.499 66.6773 458.56 65.284C457.636 63.876 457.174 61.896 457.174 59.344C457.174 56.8067 457.636 54.8413 458.56 53.448C459.499 52.0547 460.87 51.358 462.674 51.358ZM462.674 53.888C461.941 53.888 461.398 54.3133 461.046 55.164C460.709 56 460.54 57.3933 460.54 59.344C460.54 61.3533 460.709 62.776 461.046 63.612C461.398 64.448 461.941 64.866 462.674 64.866C463.422 64.866 463.958 64.448 464.28 63.612C464.618 62.776 464.786 61.3533 464.786 59.344C464.786 57.364 464.61 55.9633 464.258 55.142C463.921 54.306 463.393 53.888 462.674 53.888ZM462.652 57.98C463.063 57.98 463.408 58.1193 463.686 58.398C463.965 58.6767 464.104 59.014 464.104 59.41C464.104 59.8207 463.965 60.1653 463.686 60.444C463.408 60.7227 463.063 60.862 462.652 60.862C462.242 60.862 461.897 60.7227 461.618 60.444C461.354 60.1653 461.222 59.8207 461.222 59.41C461.222 59.014 461.354 58.6767 461.618 58.398C461.897 58.1193 462.242 57.98 462.652 57.98ZM475.866 51.358C477.67 51.358 479.034 52.0547 479.958 53.448C480.896 54.8413 481.366 56.8067 481.366 59.344C481.366 61.896 480.896 63.876 479.958 65.284C479.034 66.6773 477.67 67.374 475.866 67.374C474.062 67.374 472.69 66.6773 471.752 65.284C470.828 63.876 470.366 61.896 470.366 59.344C470.366 56.8067 470.828 54.8413 471.752 53.448C472.69 52.0547 474.062 51.358 475.866 51.358ZM475.866 53.888C475.132 53.888 474.59 54.3133 474.238 55.164C473.9 56 473.732 57.3933 473.732 59.344C473.732 61.3533 473.9 62.776 474.238 63.612C474.59 64.448 475.132 64.866 475.866 64.866C476.614 64.866 477.149 64.448 477.472 63.612C477.809 62.776 477.978 61.3533 477.978 59.344C477.978 57.364 477.802 55.9633 477.45 55.142C477.112 54.306 476.584 53.888 475.866 53.888ZM475.844 57.98C476.254 57.98 476.599 58.1193 476.878 58.398C477.156 58.6767 477.296 59.014 477.296 59.41C477.296 59.8207 477.156 60.1653 476.878 60.444C476.599 60.7227 476.254 60.862 475.844 60.862C475.433 60.862 475.088 60.7227 474.81 60.444C474.546 60.1653 474.414 59.8207 474.414 59.41C474.414 59.014 474.546 58.6767 474.81 58.398C475.088 58.1193 475.433 57.98 475.844 57.98ZM489.057 51.358C490.861 51.358 492.225 52.0547 493.149 53.448C494.088 54.8413 494.557 56.8067 494.557 59.344C494.557 61.896 494.088 63.876 493.149 65.284C492.225 66.6773 490.861 67.374 489.057 67.374C487.253 67.374 485.882 66.6773 484.943 65.284C484.019 63.876 483.557 61.896 483.557 59.344C483.557 56.8067 484.019 54.8413 484.943 53.448C485.882 52.0547 487.253 51.358 489.057 51.358ZM489.057 53.888C488.324 53.888 487.781 54.3133 487.429 55.164C487.092 56 486.923 57.3933 486.923 59.344C486.923 61.3533 487.092 62.776 487.429 63.612C487.781 64.448 488.324 64.866 489.057 64.866C489.805 64.866 490.34 64.448 490.663 63.612C491 62.776 491.169 61.3533 491.169 59.344C491.169 57.364 490.993 55.9633 490.641 55.142C490.304 54.306 489.776 53.888 489.057 53.888ZM489.035 57.98C489.446 57.98 489.79 58.1193 490.069 58.398C490.348 58.6767 490.487 59.014 490.487 59.41C490.487 59.8207 490.348 60.1653 490.069 60.444C489.79 60.7227 489.446 60.862 489.035 60.862C488.624 60.862 488.28 60.7227 488.001 60.444C487.737 60.1653 487.605 59.8207 487.605 59.41C487.605 59.014 487.737 58.6767 488.001 58.398C488.28 58.1193 488.624 57.98 489.035 57.98ZM502.248 51.358C504.052 51.358 505.416 52.0547 506.34 53.448C507.279 54.8413 507.748 56.8067 507.748 59.344C507.748 61.896 507.279 63.876 506.34 65.284C505.416 66.6773 504.052 67.374 502.248 67.374C500.444 67.374 499.073 66.6773 498.134 65.284C497.21 63.876 496.748 61.896 496.748 59.344C496.748 56.8067 497.21 54.8413 498.134 53.448C499.073 52.0547 500.444 51.358 502.248 51.358ZM502.248 53.888C501.515 53.888 500.972 54.3133 500.62 55.164C500.283 56 500.114 57.3933 500.114 59.344C500.114 61.3533 500.283 62.776 500.62 63.612C500.972 64.448 501.515 64.866 502.248 64.866C502.996 64.866 503.532 64.448 503.854 63.612C504.192 62.776 504.36 61.3533 504.36 59.344C504.36 57.364 504.184 55.9633 503.832 55.142C503.495 54.306 502.967 53.888 502.248 53.888ZM502.226 57.98C502.637 57.98 502.982 58.1193 503.26 58.398C503.539 58.6767 503.678 59.014 503.678 59.41C503.678 59.8207 503.539 60.1653 503.26 60.444C502.982 60.7227 502.637 60.862 502.226 60.862C501.816 60.862 501.471 60.7227 501.192 60.444C500.928 60.1653 500.796 59.8207 500.796 59.41C500.796 59.014 500.928 58.6767 501.192 58.398C501.471 58.1193 501.816 57.98 502.226 57.98ZM520.962 64.36V67H511.062V64.36H514.736V55.164L511.59 57.144L510.116 54.746L515.044 51.754H518.124V64.36H520.962ZM317.569 77.358C319.373 77.358 320.737 78.0547 321.661 79.448C322.599 80.8413 323.069 82.8067 323.069 85.344C323.069 87.896 322.599 89.876 321.661 91.284C320.737 92.6773 319.373 93.374 317.569 93.374C315.765 93.374 314.393 92.6773 313.455 91.284C312.531 89.876 312.069 87.896 312.069 85.344C312.069 82.8067 312.531 80.8413 313.455 79.448C314.393 78.0547 315.765 77.358 317.569 77.358ZM317.569 79.888C316.835 79.888 316.293 80.3133 315.941 81.164C315.603 82 315.435 83.3933 315.435 85.344C315.435 87.3533 315.603 88.776 315.941 89.612C316.293 90.448 316.835 90.866 317.569 90.866C318.317 90.866 318.852 90.448 319.175 89.612C319.512 88.776 319.681 87.3533 319.681 85.344C319.681 83.364 319.505 81.9633 319.153 81.142C318.815 80.306 318.287 79.888 317.569 79.888ZM317.547 83.98C317.957 83.98 318.302 84.1193 318.581 84.398C318.859 84.6767 318.999 85.014 318.999 85.41C318.999 85.8207 318.859 86.1653 318.581 86.444C318.302 86.7227 317.957 86.862 317.547 86.862C317.136 86.862 316.791 86.7227 316.513 86.444C316.249 86.1653 316.117 85.8207 316.117 85.41C316.117 85.014 316.249 84.6767 316.513 84.398C316.791 84.1193 317.136 83.98 317.547 83.98ZM336.282 90.36V93H326.382V90.36H330.056V81.164L326.91 83.144L325.436 80.746L330.364 77.754H333.444V90.36H336.282ZM349.474 90.36V93H339.574V90.36H343.248V81.164L340.102 83.144L338.628 80.746L343.556 77.754H346.636V90.36H349.474ZM357.143 77.358C358.947 77.358 360.311 78.0547 361.235 79.448C362.174 80.8413 362.643 82.8067 362.643 85.344C362.643 87.896 362.174 89.876 361.235 91.284C360.311 92.6773 358.947 93.374 357.143 93.374C355.339 93.374 353.968 92.6773 353.029 91.284C352.105 89.876 351.643 87.896 351.643 85.344C351.643 82.8067 352.105 80.8413 353.029 79.448C353.968 78.0547 355.339 77.358 357.143 77.358ZM357.143 79.888C356.41 79.888 355.867 80.3133 355.515 81.164C355.178 82 355.009 83.3933 355.009 85.344C355.009 87.3533 355.178 88.776 355.515 89.612C355.867 90.448 356.41 90.866 357.143 90.866C357.891 90.866 358.426 90.448 358.749 89.612C359.086 88.776 359.255 87.3533 359.255 85.344C359.255 83.364 359.079 81.9633 358.727 81.142C358.39 80.306 357.862 79.888 357.143 79.888ZM357.121 83.98C357.532 83.98 357.876 84.1193 358.155 84.398C358.434 84.6767 358.573 85.014 358.573 85.41C358.573 85.8207 358.434 86.1653 358.155 86.444C357.876 86.7227 357.532 86.862 357.121 86.862C356.71 86.862 356.366 86.7227 356.087 86.444C355.823 86.1653 355.691 85.8207 355.691 85.41C355.691 85.014 355.823 84.6767 356.087 84.398C356.366 84.1193 356.71 83.98 357.121 83.98ZM370.334 77.358C372.138 77.358 373.502 78.0547 374.426 79.448C375.365 80.8413 375.834 82.8067 375.834 85.344C375.834 87.896 375.365 89.876 374.426 91.284C373.502 92.6773 372.138 93.374 370.334 93.374C368.53 93.374 367.159 92.6773 366.22 91.284C365.296 89.876 364.834 87.896 364.834 85.344C364.834 82.8067 365.296 80.8413 366.22 79.448C367.159 78.0547 368.53 77.358 370.334 77.358ZM370.334 79.888C369.601 79.888 369.058 80.3133 368.706 81.164C368.369 82 368.2 83.3933 368.2 85.344C368.2 87.3533 368.369 88.776 368.706 89.612C369.058 90.448 369.601 90.866 370.334 90.866C371.082 90.866 371.618 90.448 371.94 89.612C372.278 88.776 372.446 87.3533 372.446 85.344C372.446 83.364 372.27 81.9633 371.918 81.142C371.581 80.306 371.053 79.888 370.334 79.888ZM370.312 83.98C370.723 83.98 371.068 84.1193 371.346 84.398C371.625 84.6767 371.764 85.014 371.764 85.41C371.764 85.8207 371.625 86.1653 371.346 86.444C371.068 86.7227 370.723 86.862 370.312 86.862C369.902 86.862 369.557 86.7227 369.278 86.444C369.014 86.1653 368.882 85.8207 368.882 85.41C368.882 85.014 369.014 84.6767 369.278 84.398C369.557 84.1193 369.902 83.98 370.312 83.98ZM389.048 90.36V93H379.148V90.36H382.822V81.164L379.676 83.144L378.202 80.746L383.13 77.754H386.21V90.36H389.048ZM396.717 77.358C398.521 77.358 399.885 78.0547 400.809 79.448C401.748 80.8413 402.217 82.8067 402.217 85.344C402.217 87.896 401.748 89.876 400.809 91.284C399.885 92.6773 398.521 93.374 396.717 93.374C394.913 93.374 393.542 92.6773 392.603 91.284C391.679 89.876 391.217 87.896 391.217 85.344C391.217 82.8067 391.679 80.8413 392.603 79.448C393.542 78.0547 394.913 77.358 396.717 77.358ZM396.717 79.888C395.984 79.888 395.441 80.3133 395.089 81.164C394.752 82 394.583 83.3933 394.583 85.344C394.583 87.3533 394.752 88.776 395.089 89.612C395.441 90.448 395.984 90.866 396.717 90.866C397.465 90.866 398.001 90.448 398.323 89.612C398.661 88.776 398.829 87.3533 398.829 85.344C398.829 83.364 398.653 81.9633 398.301 81.142C397.964 80.306 397.436 79.888 396.717 79.888ZM396.695 83.98C397.106 83.98 397.451 84.1193 397.729 84.398C398.008 84.6767 398.147 85.014 398.147 85.41C398.147 85.8207 398.008 86.1653 397.729 86.444C397.451 86.7227 397.106 86.862 396.695 86.862C396.285 86.862 395.94 86.7227 395.661 86.444C395.397 86.1653 395.265 85.8207 395.265 85.41C395.265 85.014 395.397 84.6767 395.661 84.398C395.94 84.1193 396.285 83.98 396.695 83.98ZM409.909 77.358C411.713 77.358 413.077 78.0547 414.001 79.448C414.939 80.8413 415.409 82.8067 415.409 85.344C415.409 87.896 414.939 89.876 414.001 91.284C413.077 92.6773 411.713 93.374 409.909 93.374C408.105 93.374 406.733 92.6773 405.795 91.284C404.871 89.876 404.409 87.896 404.409 85.344C404.409 82.8067 404.871 80.8413 405.795 79.448C406.733 78.0547 408.105 77.358 409.909 77.358ZM409.909 79.888C409.175 79.888 408.633 80.3133 408.281 81.164C407.943 82 407.775 83.3933 407.775 85.344C407.775 87.3533 407.943 88.776 408.281 89.612C408.633 90.448 409.175 90.866 409.909 90.866C410.657 90.866 411.192 90.448 411.515 89.612C411.852 88.776 412.021 87.3533 412.021 85.344C412.021 83.364 411.845 81.9633 411.493 81.142C411.155 80.306 410.627 79.888 409.909 79.888ZM409.887 83.98C410.297 83.98 410.642 84.1193 410.921 84.398C411.199 84.6767 411.339 85.014 411.339 85.41C411.339 85.8207 411.199 86.1653 410.921 86.444C410.642 86.7227 410.297 86.862 409.887 86.862C409.476 86.862 409.131 86.7227 408.853 86.444C408.589 86.1653 408.457 85.8207 408.457 85.41C408.457 85.014 408.589 84.6767 408.853 84.398C409.131 84.1193 409.476 83.98 409.887 83.98ZM423.1 77.358C424.904 77.358 426.268 78.0547 427.192 79.448C428.131 80.8413 428.6 82.8067 428.6 85.344C428.6 87.896 428.131 89.876 427.192 91.284C426.268 92.6773 424.904 93.374 423.1 93.374C421.296 93.374 419.925 92.6773 418.986 91.284C418.062 89.876 417.6 87.896 417.6 85.344C417.6 82.8067 418.062 80.8413 418.986 79.448C419.925 78.0547 421.296 77.358 423.1 77.358ZM423.1 79.888C422.367 79.888 421.824 80.3133 421.472 81.164C421.135 82 420.966 83.3933 420.966 85.344C420.966 87.3533 421.135 88.776 421.472 89.612C421.824 90.448 422.367 90.866 423.1 90.866C423.848 90.866 424.383 90.448 424.706 89.612C425.043 88.776 425.212 87.3533 425.212 85.344C425.212 83.364 425.036 81.9633 424.684 81.142C424.347 80.306 423.819 79.888 423.1 79.888ZM423.078 83.98C423.489 83.98 423.833 84.1193 424.112 84.398C424.391 84.6767 424.53 85.014 424.53 85.41C424.53 85.8207 424.391 86.1653 424.112 86.444C423.833 86.7227 423.489 86.862 423.078 86.862C422.667 86.862 422.323 86.7227 422.044 86.444C421.78 86.1653 421.648 85.8207 421.648 85.41C421.648 85.014 421.78 84.6767 422.044 84.398C422.323 84.1193 422.667 83.98 423.078 83.98ZM441.813 90.36V93H431.913V90.36H435.587V81.164L432.441 83.144L430.967 80.746L435.895 77.754H438.975V90.36H441.813ZM455.005 90.36V93H445.105V90.36H448.779V81.164L445.633 83.144L444.159 80.746L449.087 77.754H452.167V90.36H455.005ZM468.196 90.36V93H458.296V90.36H461.97V81.164L458.824 83.144L457.35 80.746L462.278 77.754H465.358V90.36H468.196ZM475.866 77.358C477.67 77.358 479.034 78.0547 479.958 79.448C480.896 80.8413 481.366 82.8067 481.366 85.344C481.366 87.896 480.896 89.876 479.958 91.284C479.034 92.6773 477.67 93.374 475.866 93.374C474.062 93.374 472.69 92.6773 471.752 91.284C470.828 89.876 470.366 87.896 470.366 85.344C470.366 82.8067 470.828 80.8413 471.752 79.448C472.69 78.0547 474.062 77.358 475.866 77.358ZM475.866 79.888C475.132 79.888 474.59 80.3133 474.238 81.164C473.9 82 473.732 83.3933 473.732 85.344C473.732 87.3533 473.9 88.776 474.238 89.612C474.59 90.448 475.132 90.866 475.866 90.866C476.614 90.866 477.149 90.448 477.472 89.612C477.809 88.776 477.978 87.3533 477.978 85.344C477.978 83.364 477.802 81.9633 477.45 81.142C477.112 80.306 476.584 79.888 475.866 79.888ZM475.844 83.98C476.254 83.98 476.599 84.1193 476.878 84.398C477.156 84.6767 477.296 85.014 477.296 85.41C477.296 85.8207 477.156 86.1653 476.878 86.444C476.599 86.7227 476.254 86.862 475.844 86.862C475.433 86.862 475.088 86.7227 474.81 86.444C474.546 86.1653 474.414 85.8207 474.414 85.41C474.414 85.014 474.546 84.6767 474.81 84.398C475.088 84.1193 475.433 83.98 475.844 83.98ZM489.057 77.358C490.861 77.358 492.225 78.0547 493.149 79.448C494.088 80.8413 494.557 82.8067 494.557 85.344C494.557 87.896 494.088 89.876 493.149 91.284C492.225 92.6773 490.861 93.374 489.057 93.374C487.253 93.374 485.882 92.6773 484.943 91.284C484.019 89.876 483.557 87.896 483.557 85.344C483.557 82.8067 484.019 80.8413 484.943 79.448C485.882 78.0547 487.253 77.358 489.057 77.358ZM489.057 79.888C488.324 79.888 487.781 80.3133 487.429 81.164C487.092 82 486.923 83.3933 486.923 85.344C486.923 87.3533 487.092 88.776 487.429 89.612C487.781 90.448 488.324 90.866 489.057 90.866C489.805 90.866 490.34 90.448 490.663 89.612C491 88.776 491.169 87.3533 491.169 85.344C491.169 83.364 490.993 81.9633 490.641 81.142C490.304 80.306 489.776 79.888 489.057 79.888ZM489.035 83.98C489.446 83.98 489.79 84.1193 490.069 84.398C490.348 84.6767 490.487 85.014 490.487 85.41C490.487 85.8207 490.348 86.1653 490.069 86.444C489.79 86.7227 489.446 86.862 489.035 86.862C488.624 86.862 488.28 86.7227 488.001 86.444C487.737 86.1653 487.605 85.8207 487.605 85.41C487.605 85.014 487.737 84.6767 488.001 84.398C488.28 84.1193 488.624 83.98 489.035 83.98ZM507.77 90.36V93H497.87V90.36H501.544V81.164L498.398 83.144L496.924 80.746L501.852 77.754H504.932V90.36H507.77ZM515.44 77.358C517.244 77.358 518.608 78.0547 519.532 79.448C520.471 80.8413 520.94 82.8067 520.94 85.344C520.94 87.896 520.471 89.876 519.532 91.284C518.608 92.6773 517.244 93.374 515.44 93.374C513.636 93.374 512.265 92.6773 511.326 91.284C510.402 89.876 509.94 87.896 509.94 85.344C509.94 82.8067 510.402 80.8413 511.326 79.448C512.265 78.0547 513.636 77.358 515.44 77.358ZM515.44 79.888C514.707 79.888 514.164 80.3133 513.812 81.164C513.475 82 513.306 83.3933 513.306 85.344C513.306 87.3533 513.475 88.776 513.812 89.612C514.164 90.448 514.707 90.866 515.44 90.866C516.188 90.866 516.723 90.448 517.046 89.612C517.383 88.776 517.552 87.3533 517.552 85.344C517.552 83.364 517.376 81.9633 517.024 81.142C516.687 80.306 516.159 79.888 515.44 79.888ZM515.418 83.98C515.829 83.98 516.173 84.1193 516.452 84.398C516.731 84.6767 516.87 85.014 516.87 85.41C516.87 85.8207 516.731 86.1653 516.452 86.444C516.173 86.7227 515.829 86.862 515.418 86.862C515.007 86.862 514.663 86.7227 514.384 86.444C514.12 86.1653 513.988 85.8207 513.988 85.41C513.988 85.014 514.12 84.6767 514.384 84.398C514.663 84.1193 515.007 83.98 515.418 83.98ZM317.569 103.358C319.373 103.358 320.737 104.055 321.661 105.448C322.599 106.841 323.069 108.807 323.069 111.344C323.069 113.896 322.599 115.876 321.661 117.284C320.737 118.677 319.373 119.374 317.569 119.374C315.765 119.374 314.393 118.677 313.455 117.284C312.531 115.876 312.069 113.896 312.069 111.344C312.069 108.807 312.531 106.841 313.455 105.448C314.393 104.055 315.765 103.358 317.569 103.358ZM317.569 105.888C316.835 105.888 316.293 106.313 315.941 107.164C315.603 108 315.435 109.393 315.435 111.344C315.435 113.353 315.603 114.776 315.941 115.612C316.293 116.448 316.835 116.866 317.569 116.866C318.317 116.866 318.852 116.448 319.175 115.612C319.512 114.776 319.681 113.353 319.681 111.344C319.681 109.364 319.505 107.963 319.153 107.142C318.815 106.306 318.287 105.888 317.569 105.888ZM317.547 109.98C317.957 109.98 318.302 110.119 318.581 110.398C318.859 110.677 318.999 111.014 318.999 111.41C318.999 111.821 318.859 112.165 318.581 112.444C318.302 112.723 317.957 112.862 317.547 112.862C317.136 112.862 316.791 112.723 316.513 112.444C316.249 112.165 316.117 111.821 316.117 111.41C316.117 111.014 316.249 110.677 316.513 110.398C316.791 110.119 317.136 109.98 317.547 109.98ZM336.282 116.36V119H326.382V116.36H330.056V107.164L326.91 109.144L325.436 106.746L330.364 103.754H333.444V116.36H336.282ZM349.474 116.36V119H339.574V116.36H343.248V107.164L340.102 109.144L338.628 106.746L343.556 103.754H346.636V116.36H349.474ZM357.143 103.358C358.947 103.358 360.311 104.055 361.235 105.448C362.174 106.841 362.643 108.807 362.643 111.344C362.643 113.896 362.174 115.876 361.235 117.284C360.311 118.677 358.947 119.374 357.143 119.374C355.339 119.374 353.968 118.677 353.029 117.284C352.105 115.876 351.643 113.896 351.643 111.344C351.643 108.807 352.105 106.841 353.029 105.448C353.968 104.055 355.339 103.358 357.143 103.358ZM357.143 105.888C356.41 105.888 355.867 106.313 355.515 107.164C355.178 108 355.009 109.393 355.009 111.344C355.009 113.353 355.178 114.776 355.515 115.612C355.867 116.448 356.41 116.866 357.143 116.866C357.891 116.866 358.426 116.448 358.749 115.612C359.086 114.776 359.255 113.353 359.255 111.344C359.255 109.364 359.079 107.963 358.727 107.142C358.39 106.306 357.862 105.888 357.143 105.888ZM357.121 109.98C357.532 109.98 357.876 110.119 358.155 110.398C358.434 110.677 358.573 111.014 358.573 111.41C358.573 111.821 358.434 112.165 358.155 112.444C357.876 112.723 357.532 112.862 357.121 112.862C356.71 112.862 356.366 112.723 356.087 112.444C355.823 112.165 355.691 111.821 355.691 111.41C355.691 111.014 355.823 110.677 356.087 110.398C356.366 110.119 356.71 109.98 357.121 109.98ZM375.856 116.36V119H365.956V116.36H369.63V107.164L366.484 109.144L365.01 106.746L369.938 103.754H373.018V116.36H375.856ZM383.526 103.358C385.33 103.358 386.694 104.055 387.618 105.448C388.556 106.841 389.026 108.807 389.026 111.344C389.026 113.896 388.556 115.876 387.618 117.284C386.694 118.677 385.33 119.374 383.526 119.374C381.722 119.374 380.35 118.677 379.412 117.284C378.488 115.876 378.026 113.896 378.026 111.344C378.026 108.807 378.488 106.841 379.412 105.448C380.35 104.055 381.722 103.358 383.526 103.358ZM383.526 105.888C382.792 105.888 382.25 106.313 381.898 107.164C381.56 108 381.392 109.393 381.392 111.344C381.392 113.353 381.56 114.776 381.898 115.612C382.25 116.448 382.792 116.866 383.526 116.866C384.274 116.866 384.809 116.448 385.132 115.612C385.469 114.776 385.638 113.353 385.638 111.344C385.638 109.364 385.462 107.963 385.11 107.142C384.772 106.306 384.244 105.888 383.526 105.888ZM383.504 109.98C383.914 109.98 384.259 110.119 384.538 110.398C384.816 110.677 384.956 111.014 384.956 111.41C384.956 111.821 384.816 112.165 384.538 112.444C384.259 112.723 383.914 112.862 383.504 112.862C383.093 112.862 382.748 112.723 382.47 112.444C382.206 112.165 382.074 111.821 382.074 111.41C382.074 111.014 382.206 110.677 382.47 110.398C382.748 110.119 383.093 109.98 383.504 109.98ZM396.717 103.358C398.521 103.358 399.885 104.055 400.809 105.448C401.748 106.841 402.217 108.807 402.217 111.344C402.217 113.896 401.748 115.876 400.809 117.284C399.885 118.677 398.521 119.374 396.717 119.374C394.913 119.374 393.542 118.677 392.603 117.284C391.679 115.876 391.217 113.896 391.217 111.344C391.217 108.807 391.679 106.841 392.603 105.448C393.542 104.055 394.913 103.358 396.717 103.358ZM396.717 105.888C395.984 105.888 395.441 106.313 395.089 107.164C394.752 108 394.583 109.393 394.583 111.344C394.583 113.353 394.752 114.776 395.089 115.612C395.441 116.448 395.984 116.866 396.717 116.866C397.465 116.866 398.001 116.448 398.323 115.612C398.661 114.776 398.829 113.353 398.829 111.344C398.829 109.364 398.653 107.963 398.301 107.142C397.964 106.306 397.436 105.888 396.717 105.888ZM396.695 109.98C397.106 109.98 397.451 110.119 397.729 110.398C398.008 110.677 398.147 111.014 398.147 111.41C398.147 111.821 398.008 112.165 397.729 112.444C397.451 112.723 397.106 112.862 396.695 112.862C396.285 112.862 395.94 112.723 395.661 112.444C395.397 112.165 395.265 111.821 395.265 111.41C395.265 111.014 395.397 110.677 395.661 110.398C395.94 110.119 396.285 109.98 396.695 109.98ZM415.431 116.36V119H405.531V116.36H409.205V107.164L406.059 109.144L404.585 106.746L409.513 103.754H412.593V116.36H415.431ZM423.1 103.358C424.904 103.358 426.268 104.055 427.192 105.448C428.131 106.841 428.6 108.807 428.6 111.344C428.6 113.896 428.131 115.876 427.192 117.284C426.268 118.677 424.904 119.374 423.1 119.374C421.296 119.374 419.925 118.677 418.986 117.284C418.062 115.876 417.6 113.896 417.6 111.344C417.6 108.807 418.062 106.841 418.986 105.448C419.925 104.055 421.296 103.358 423.1 103.358ZM423.1 105.888C422.367 105.888 421.824 106.313 421.472 107.164C421.135 108 420.966 109.393 420.966 111.344C420.966 113.353 421.135 114.776 421.472 115.612C421.824 116.448 422.367 116.866 423.1 116.866C423.848 116.866 424.383 116.448 424.706 115.612C425.043 114.776 425.212 113.353 425.212 111.344C425.212 109.364 425.036 107.963 424.684 107.142C424.347 106.306 423.819 105.888 423.1 105.888ZM423.078 109.98C423.489 109.98 423.833 110.119 424.112 110.398C424.391 110.677 424.53 111.014 424.53 111.41C424.53 111.821 424.391 112.165 424.112 112.444C423.833 112.723 423.489 112.862 423.078 112.862C422.667 112.862 422.323 112.723 422.044 112.444C421.78 112.165 421.648 111.821 421.648 111.41C421.648 111.014 421.78 110.677 422.044 110.398C422.323 110.119 422.667 109.98 423.078 109.98ZM441.813 116.36V119H431.913V116.36H435.587V107.164L432.441 109.144L430.967 106.746L435.895 103.754H438.975V116.36H441.813ZM455.005 116.36V119H445.105V116.36H448.779V107.164L445.633 109.144L444.159 106.746L449.087 103.754H452.167V116.36H455.005ZM468.196 116.36V119H458.296V116.36H461.97V107.164L458.824 109.144L457.35 106.746L462.278 103.754H465.358V116.36H468.196ZM475.866 103.358C477.67 103.358 479.034 104.055 479.958 105.448C480.896 106.841 481.366 108.807 481.366 111.344C481.366 113.896 480.896 115.876 479.958 117.284C479.034 118.677 477.67 119.374 475.866 119.374C474.062 119.374 472.69 118.677 471.752 117.284C470.828 115.876 470.366 113.896 470.366 111.344C470.366 108.807 470.828 106.841 471.752 105.448C472.69 104.055 474.062 103.358 475.866 103.358ZM475.866 105.888C475.132 105.888 474.59 106.313 474.238 107.164C473.9 108 473.732 109.393 473.732 111.344C473.732 113.353 473.9 114.776 474.238 115.612C474.59 116.448 475.132 116.866 475.866 116.866C476.614 116.866 477.149 116.448 477.472 115.612C477.809 114.776 477.978 113.353 477.978 111.344C477.978 109.364 477.802 107.963 477.45 107.142C477.112 106.306 476.584 105.888 475.866 105.888ZM475.844 109.98C476.254 109.98 476.599 110.119 476.878 110.398C477.156 110.677 477.296 111.014 477.296 111.41C477.296 111.821 477.156 112.165 476.878 112.444C476.599 112.723 476.254 112.862 475.844 112.862C475.433 112.862 475.088 112.723 474.81 112.444C474.546 112.165 474.414 111.821 474.414 111.41C474.414 111.014 474.546 110.677 474.81 110.398C475.088 110.119 475.433 109.98 475.844 109.98ZM494.579 116.36V119H484.679V116.36H488.353V107.164L485.207 109.144L483.733 106.746L488.661 103.754H491.741V116.36H494.579ZM507.77 116.36V119H497.87V116.36H501.544V107.164L498.398 109.144L496.924 106.746L501.852 103.754H504.932V116.36H507.77ZM515.44 103.358C517.244 103.358 518.608 104.055 519.532 105.448C520.471 106.841 520.94 108.807 520.94 111.344C520.94 113.896 520.471 115.876 519.532 117.284C518.608 118.677 517.244 119.374 515.44 119.374C513.636 119.374 512.265 118.677 511.326 117.284C510.402 115.876 509.94 113.896 509.94 111.344C509.94 108.807 510.402 106.841 511.326 105.448C512.265 104.055 513.636 103.358 515.44 103.358ZM515.44 105.888C514.707 105.888 514.164 106.313 513.812 107.164C513.475 108 513.306 109.393 513.306 111.344C513.306 113.353 513.475 114.776 513.812 115.612C514.164 116.448 514.707 116.866 515.44 116.866C516.188 116.866 516.723 116.448 517.046 115.612C517.383 114.776 517.552 113.353 517.552 111.344C517.552 109.364 517.376 107.963 517.024 107.142C516.687 106.306 516.159 105.888 515.44 105.888ZM515.418 109.98C515.829 109.98 516.173 110.119 516.452 110.398C516.731 110.677 516.87 111.014 516.87 111.41C516.87 111.821 516.731 112.165 516.452 112.444C516.173 112.723 515.829 112.862 515.418 112.862C515.007 112.862 514.663 112.723 514.384 112.444C514.12 112.165 513.988 111.821 513.988 111.41C513.988 111.014 514.12 110.677 514.384 110.398C514.663 110.119 515.007 109.98 515.418 109.98ZM317.569 129.358C319.373 129.358 320.737 130.055 321.661 131.448C322.599 132.841 323.069 134.807 323.069 137.344C323.069 139.896 322.599 141.876 321.661 143.284C320.737 144.677 319.373 145.374 317.569 145.374C315.765 145.374 314.393 144.677 313.455 143.284C312.531 141.876 312.069 139.896 312.069 137.344C312.069 134.807 312.531 132.841 313.455 131.448C314.393 130.055 315.765 129.358 317.569 129.358ZM317.569 131.888C316.835 131.888 316.293 132.313 315.941 133.164C315.603 134 315.435 135.393 315.435 137.344C315.435 139.353 315.603 140.776 315.941 141.612C316.293 142.448 316.835 142.866 317.569 142.866C318.317 142.866 318.852 142.448 319.175 141.612C319.512 140.776 319.681 139.353 319.681 137.344C319.681 135.364 319.505 133.963 319.153 133.142C318.815 132.306 318.287 131.888 317.569 131.888ZM317.547 135.98C317.957 135.98 318.302 136.119 318.581 136.398C318.859 136.677 318.999 137.014 318.999 137.41C318.999 137.821 318.859 138.165 318.581 138.444C318.302 138.723 317.957 138.862 317.547 138.862C317.136 138.862 316.791 138.723 316.513 138.444C316.249 138.165 316.117 137.821 316.117 137.41C316.117 137.014 316.249 136.677 316.513 136.398C316.791 136.119 317.136 135.98 317.547 135.98ZM336.282 142.36V145H326.382V142.36H330.056V133.164L326.91 135.144L325.436 132.746L330.364 129.754H333.444V142.36H336.282ZM349.474 142.36V145H339.574V142.36H343.248V133.164L340.102 135.144L338.628 132.746L343.556 129.754H346.636V142.36H349.474ZM357.143 129.358C358.947 129.358 360.311 130.055 361.235 131.448C362.174 132.841 362.643 134.807 362.643 137.344C362.643 139.896 362.174 141.876 361.235 143.284C360.311 144.677 358.947 145.374 357.143 145.374C355.339 145.374 353.968 144.677 353.029 143.284C352.105 141.876 351.643 139.896 351.643 137.344C351.643 134.807 352.105 132.841 353.029 131.448C353.968 130.055 355.339 129.358 357.143 129.358ZM357.143 131.888C356.41 131.888 355.867 132.313 355.515 133.164C355.178 134 355.009 135.393 355.009 137.344C355.009 139.353 355.178 140.776 355.515 141.612C355.867 142.448 356.41 142.866 357.143 142.866C357.891 142.866 358.426 142.448 358.749 141.612C359.086 140.776 359.255 139.353 359.255 137.344C359.255 135.364 359.079 133.963 358.727 133.142C358.39 132.306 357.862 131.888 357.143 131.888ZM357.121 135.98C357.532 135.98 357.876 136.119 358.155 136.398C358.434 136.677 358.573 137.014 358.573 137.41C358.573 137.821 358.434 138.165 358.155 138.444C357.876 138.723 357.532 138.862 357.121 138.862C356.71 138.862 356.366 138.723 356.087 138.444C355.823 138.165 355.691 137.821 355.691 137.41C355.691 137.014 355.823 136.677 356.087 136.398C356.366 136.119 356.71 135.98 357.121 135.98ZM370.334 129.358C372.138 129.358 373.502 130.055 374.426 131.448C375.365 132.841 375.834 134.807 375.834 137.344C375.834 139.896 375.365 141.876 374.426 143.284C373.502 144.677 372.138 145.374 370.334 145.374C368.53 145.374 367.159 144.677 366.22 143.284C365.296 141.876 364.834 139.896 364.834 137.344C364.834 134.807 365.296 132.841 366.22 131.448C367.159 130.055 368.53 129.358 370.334 129.358ZM370.334 131.888C369.601 131.888 369.058 132.313 368.706 133.164C368.369 134 368.2 135.393 368.2 137.344C368.2 139.353 368.369 140.776 368.706 141.612C369.058 142.448 369.601 142.866 370.334 142.866C371.082 142.866 371.618 142.448 371.94 141.612C372.278 140.776 372.446 139.353 372.446 137.344C372.446 135.364 372.27 133.963 371.918 133.142C371.581 132.306 371.053 131.888 370.334 131.888ZM370.312 135.98C370.723 135.98 371.068 136.119 371.346 136.398C371.625 136.677 371.764 137.014 371.764 137.41C371.764 137.821 371.625 138.165 371.346 138.444C371.068 138.723 370.723 138.862 370.312 138.862C369.902 138.862 369.557 138.723 369.278 138.444C369.014 138.165 368.882 137.821 368.882 137.41C368.882 137.014 369.014 136.677 369.278 136.398C369.557 136.119 369.902 135.98 370.312 135.98ZM389.048 142.36V145H379.148V142.36H382.822V133.164L379.676 135.144L378.202 132.746L383.13 129.754H386.21V142.36H389.048ZM396.717 129.358C398.521 129.358 399.885 130.055 400.809 131.448C401.748 132.841 402.217 134.807 402.217 137.344C402.217 139.896 401.748 141.876 400.809 143.284C399.885 144.677 398.521 145.374 396.717 145.374C394.913 145.374 393.542 144.677 392.603 143.284C391.679 141.876 391.217 139.896 391.217 137.344C391.217 134.807 391.679 132.841 392.603 131.448C393.542 130.055 394.913 129.358 396.717 129.358ZM396.717 131.888C395.984 131.888 395.441 132.313 395.089 133.164C394.752 134 394.583 135.393 394.583 137.344C394.583 139.353 394.752 140.776 395.089 141.612C395.441 142.448 395.984 142.866 396.717 142.866C397.465 142.866 398.001 142.448 398.323 141.612C398.661 140.776 398.829 139.353 398.829 137.344C398.829 135.364 398.653 133.963 398.301 133.142C397.964 132.306 397.436 131.888 396.717 131.888ZM396.695 135.98C397.106 135.98 397.451 136.119 397.729 136.398C398.008 136.677 398.147 137.014 398.147 137.41C398.147 137.821 398.008 138.165 397.729 138.444C397.451 138.723 397.106 138.862 396.695 138.862C396.285 138.862 395.94 138.723 395.661 138.444C395.397 138.165 395.265 137.821 395.265 137.41C395.265 137.014 395.397 136.677 395.661 136.398C395.94 136.119 396.285 135.98 396.695 135.98ZM415.431 142.36V145H405.531V142.36H409.205V133.164L406.059 135.144L404.585 132.746L409.513 129.754H412.593V142.36H415.431ZM423.1 129.358C424.904 129.358 426.268 130.055 427.192 131.448C428.131 132.841 428.6 134.807 428.6 137.344C428.6 139.896 428.131 141.876 427.192 143.284C426.268 144.677 424.904 145.374 423.1 145.374C421.296 145.374 419.925 144.677 418.986 143.284C418.062 141.876 417.6 139.896 417.6 137.344C417.6 134.807 418.062 132.841 418.986 131.448C419.925 130.055 421.296 129.358 423.1 129.358ZM423.1 131.888C422.367 131.888 421.824 132.313 421.472 133.164C421.135 134 420.966 135.393 420.966 137.344C420.966 139.353 421.135 140.776 421.472 141.612C421.824 142.448 422.367 142.866 423.1 142.866C423.848 142.866 424.383 142.448 424.706 141.612C425.043 140.776 425.212 139.353 425.212 137.344C425.212 135.364 425.036 133.963 424.684 133.142C424.347 132.306 423.819 131.888 423.1 131.888ZM423.078 135.98C423.489 135.98 423.833 136.119 424.112 136.398C424.391 136.677 424.53 137.014 424.53 137.41C424.53 137.821 424.391 138.165 424.112 138.444C423.833 138.723 423.489 138.862 423.078 138.862C422.667 138.862 422.323 138.723 422.044 138.444C421.78 138.165 421.648 137.821 421.648 137.41C421.648 137.014 421.78 136.677 422.044 136.398C422.323 136.119 422.667 135.98 423.078 135.98ZM441.813 142.36V145H431.913V142.36H435.587V133.164L432.441 135.144L430.967 132.746L435.895 129.754H438.975V142.36H441.813ZM455.005 142.36V145H445.105V142.36H448.779V133.164L445.633 135.144L444.159 132.746L449.087 129.754H452.167V142.36H455.005ZM462.674 129.358C464.478 129.358 465.842 130.055 466.766 131.448C467.705 132.841 468.174 134.807 468.174 137.344C468.174 139.896 467.705 141.876 466.766 143.284C465.842 144.677 464.478 145.374 462.674 145.374C460.87 145.374 459.499 144.677 458.56 143.284C457.636 141.876 457.174 139.896 457.174 137.344C457.174 134.807 457.636 132.841 458.56 131.448C459.499 130.055 460.87 129.358 462.674 129.358ZM462.674 131.888C461.941 131.888 461.398 132.313 461.046 133.164C460.709 134 460.54 135.393 460.54 137.344C460.54 139.353 460.709 140.776 461.046 141.612C461.398 142.448 461.941 142.866 462.674 142.866C463.422 142.866 463.958 142.448 464.28 141.612C464.618 140.776 464.786 139.353 464.786 137.344C464.786 135.364 464.61 133.963 464.258 133.142C463.921 132.306 463.393 131.888 462.674 131.888ZM462.652 135.98C463.063 135.98 463.408 136.119 463.686 136.398C463.965 136.677 464.104 137.014 464.104 137.41C464.104 137.821 463.965 138.165 463.686 138.444C463.408 138.723 463.063 138.862 462.652 138.862C462.242 138.862 461.897 138.723 461.618 138.444C461.354 138.165 461.222 137.821 461.222 137.41C461.222 137.014 461.354 136.677 461.618 136.398C461.897 136.119 462.242 135.98 462.652 135.98ZM481.388 142.36V145H471.488V142.36H475.162V133.164L472.016 135.144L470.542 132.746L475.47 129.754H478.55V142.36H481.388ZM494.579 142.36V145H484.679V142.36H488.353V133.164L485.207 135.144L483.733 132.746L488.661 129.754H491.741V142.36H494.579ZM507.77 142.36V145H497.87V142.36H501.544V133.164L498.398 135.144L496.924 132.746L501.852 129.754H504.932V142.36H507.77ZM515.44 129.358C517.244 129.358 518.608 130.055 519.532 131.448C520.471 132.841 520.94 134.807 520.94 137.344C520.94 139.896 520.471 141.876 519.532 143.284C518.608 144.677 517.244 145.374 515.44 145.374C513.636 145.374 512.265 144.677 511.326 143.284C510.402 141.876 509.94 139.896 509.94 137.344C509.94 134.807 510.402 132.841 511.326 131.448C512.265 130.055 513.636 129.358 515.44 129.358ZM515.44 131.888C514.707 131.888 514.164 132.313 513.812 133.164C513.475 134 513.306 135.393 513.306 137.344C513.306 139.353 513.475 140.776 513.812 141.612C514.164 142.448 514.707 142.866 515.44 142.866C516.188 142.866 516.723 142.448 517.046 141.612C517.383 140.776 517.552 139.353 517.552 137.344C517.552 135.364 517.376 133.963 517.024 133.142C516.687 132.306 516.159 131.888 515.44 131.888ZM515.418 135.98C515.829 135.98 516.173 136.119 516.452 136.398C516.731 136.677 516.87 137.014 516.87 137.41C516.87 137.821 516.731 138.165 516.452 138.444C516.173 138.723 515.829 138.862 515.418 138.862C515.007 138.862 514.663 138.723 514.384 138.444C514.12 138.165 513.988 137.821 513.988 137.41C513.988 137.014 514.12 136.677 514.384 136.398C514.663 136.119 515.007 135.98 515.418 135.98ZM317.569 155.358C319.373 155.358 320.737 156.055 321.661 157.448C322.599 158.841 323.069 160.807 323.069 163.344C323.069 165.896 322.599 167.876 321.661 169.284C320.737 170.677 319.373 171.374 317.569 171.374C315.765 171.374 314.393 170.677 313.455 169.284C312.531 167.876 312.069 165.896 312.069 163.344C312.069 160.807 312.531 158.841 313.455 157.448C314.393 156.055 315.765 155.358 317.569 155.358ZM317.569 157.888C316.835 157.888 316.293 158.313 315.941 159.164C315.603 160 315.435 161.393 315.435 163.344C315.435 165.353 315.603 166.776 315.941 167.612C316.293 168.448 316.835 168.866 317.569 168.866C318.317 168.866 318.852 168.448 319.175 167.612C319.512 166.776 319.681 165.353 319.681 163.344C319.681 161.364 319.505 159.963 319.153 159.142C318.815 158.306 318.287 157.888 317.569 157.888ZM317.547 161.98C317.957 161.98 318.302 162.119 318.581 162.398C318.859 162.677 318.999 163.014 318.999 163.41C318.999 163.821 318.859 164.165 318.581 164.444C318.302 164.723 317.957 164.862 317.547 164.862C317.136 164.862 316.791 164.723 316.513 164.444C316.249 164.165 316.117 163.821 316.117 163.41C316.117 163.014 316.249 162.677 316.513 162.398C316.791 162.119 317.136 161.98 317.547 161.98ZM336.282 168.36V171H326.382V168.36H330.056V159.164L326.91 161.144L325.436 158.746L330.364 155.754H333.444V168.36H336.282ZM349.474 168.36V171H339.574V168.36H343.248V159.164L340.102 161.144L338.628 158.746L343.556 155.754H346.636V168.36H349.474ZM357.143 155.358C358.947 155.358 360.311 156.055 361.235 157.448C362.174 158.841 362.643 160.807 362.643 163.344C362.643 165.896 362.174 167.876 361.235 169.284C360.311 170.677 358.947 171.374 357.143 171.374C355.339 171.374 353.968 170.677 353.029 169.284C352.105 167.876 351.643 165.896 351.643 163.344C351.643 160.807 352.105 158.841 353.029 157.448C353.968 156.055 355.339 155.358 357.143 155.358ZM357.143 157.888C356.41 157.888 355.867 158.313 355.515 159.164C355.178 160 355.009 161.393 355.009 163.344C355.009 165.353 355.178 166.776 355.515 167.612C355.867 168.448 356.41 168.866 357.143 168.866C357.891 168.866 358.426 168.448 358.749 167.612C359.086 166.776 359.255 165.353 359.255 163.344C359.255 161.364 359.079 159.963 358.727 159.142C358.39 158.306 357.862 157.888 357.143 157.888ZM357.121 161.98C357.532 161.98 357.876 162.119 358.155 162.398C358.434 162.677 358.573 163.014 358.573 163.41C358.573 163.821 358.434 164.165 358.155 164.444C357.876 164.723 357.532 164.862 357.121 164.862C356.71 164.862 356.366 164.723 356.087 164.444C355.823 164.165 355.691 163.821 355.691 163.41C355.691 163.014 355.823 162.677 356.087 162.398C356.366 162.119 356.71 161.98 357.121 161.98ZM370.334 155.358C372.138 155.358 373.502 156.055 374.426 157.448C375.365 158.841 375.834 160.807 375.834 163.344C375.834 165.896 375.365 167.876 374.426 169.284C373.502 170.677 372.138 171.374 370.334 171.374C368.53 171.374 367.159 170.677 366.22 169.284C365.296 167.876 364.834 165.896 364.834 163.344C364.834 160.807 365.296 158.841 366.22 157.448C367.159 156.055 368.53 155.358 370.334 155.358ZM370.334 157.888C369.601 157.888 369.058 158.313 368.706 159.164C368.369 160 368.2 161.393 368.2 163.344C368.2 165.353 368.369 166.776 368.706 167.612C369.058 168.448 369.601 168.866 370.334 168.866C371.082 168.866 371.618 168.448 371.94 167.612C372.278 166.776 372.446 165.353 372.446 163.344C372.446 161.364 372.27 159.963 371.918 159.142C371.581 158.306 371.053 157.888 370.334 157.888ZM370.312 161.98C370.723 161.98 371.068 162.119 371.346 162.398C371.625 162.677 371.764 163.014 371.764 163.41C371.764 163.821 371.625 164.165 371.346 164.444C371.068 164.723 370.723 164.862 370.312 164.862C369.902 164.862 369.557 164.723 369.278 164.444C369.014 164.165 368.882 163.821 368.882 163.41C368.882 163.014 369.014 162.677 369.278 162.398C369.557 162.119 369.902 161.98 370.312 161.98ZM383.526 155.358C385.33 155.358 386.694 156.055 387.618 157.448C388.556 158.841 389.026 160.807 389.026 163.344C389.026 165.896 388.556 167.876 387.618 169.284C386.694 170.677 385.33 171.374 383.526 171.374C381.722 171.374 380.35 170.677 379.412 169.284C378.488 167.876 378.026 165.896 378.026 163.344C378.026 160.807 378.488 158.841 379.412 157.448C380.35 156.055 381.722 155.358 383.526 155.358ZM383.526 157.888C382.792 157.888 382.25 158.313 381.898 159.164C381.56 160 381.392 161.393 381.392 163.344C381.392 165.353 381.56 166.776 381.898 167.612C382.25 168.448 382.792 168.866 383.526 168.866C384.274 168.866 384.809 168.448 385.132 167.612C385.469 166.776 385.638 165.353 385.638 163.344C385.638 161.364 385.462 159.963 385.11 159.142C384.772 158.306 384.244 157.888 383.526 157.888ZM383.504 161.98C383.914 161.98 384.259 162.119 384.538 162.398C384.816 162.677 384.956 163.014 384.956 163.41C384.956 163.821 384.816 164.165 384.538 164.444C384.259 164.723 383.914 164.862 383.504 164.862C383.093 164.862 382.748 164.723 382.47 164.444C382.206 164.165 382.074 163.821 382.074 163.41C382.074 163.014 382.206 162.677 382.47 162.398C382.748 162.119 383.093 161.98 383.504 161.98ZM402.239 168.36V171H392.339V168.36H396.013V159.164L392.867 161.144L391.393 158.746L396.321 155.754H399.401V168.36H402.239ZM415.431 168.36V171H405.531V168.36H409.205V159.164L406.059 161.144L404.585 158.746L409.513 155.754H412.593V168.36H415.431ZM423.1 155.358C424.904 155.358 426.268 156.055 427.192 157.448C428.131 158.841 428.6 160.807 428.6 163.344C428.6 165.896 428.131 167.876 427.192 169.284C426.268 170.677 424.904 171.374 423.1 171.374C421.296 171.374 419.925 170.677 418.986 169.284C418.062 167.876 417.6 165.896 417.6 163.344C417.6 160.807 418.062 158.841 418.986 157.448C419.925 156.055 421.296 155.358 423.1 155.358ZM423.1 157.888C422.367 157.888 421.824 158.313 421.472 159.164C421.135 160 420.966 161.393 420.966 163.344C420.966 165.353 421.135 166.776 421.472 167.612C421.824 168.448 422.367 168.866 423.1 168.866C423.848 168.866 424.383 168.448 424.706 167.612C425.043 166.776 425.212 165.353 425.212 163.344C425.212 161.364 425.036 159.963 424.684 159.142C424.347 158.306 423.819 157.888 423.1 157.888ZM423.078 161.98C423.489 161.98 423.833 162.119 424.112 162.398C424.391 162.677 424.53 163.014 424.53 163.41C424.53 163.821 424.391 164.165 424.112 164.444C423.833 164.723 423.489 164.862 423.078 164.862C422.667 164.862 422.323 164.723 422.044 164.444C421.78 164.165 421.648 163.821 421.648 163.41C421.648 163.014 421.78 162.677 422.044 162.398C422.323 162.119 422.667 161.98 423.078 161.98ZM441.813 168.36V171H431.913V168.36H435.587V159.164L432.441 161.144L430.967 158.746L435.895 155.754H438.975V168.36H441.813ZM455.005 168.36V171H445.105V168.36H448.779V159.164L445.633 161.144L444.159 158.746L449.087 155.754H452.167V168.36H455.005ZM468.196 168.36V171H458.296V168.36H461.97V159.164L458.824 161.144L457.35 158.746L462.278 155.754H465.358V168.36H468.196ZM475.866 155.358C477.67 155.358 479.034 156.055 479.958 157.448C480.896 158.841 481.366 160.807 481.366 163.344C481.366 165.896 480.896 167.876 479.958 169.284C479.034 170.677 477.67 171.374 475.866 171.374C474.062 171.374 472.69 170.677 471.752 169.284C470.828 167.876 470.366 165.896 470.366 163.344C470.366 160.807 470.828 158.841 471.752 157.448C472.69 156.055 474.062 155.358 475.866 155.358ZM475.866 157.888C475.132 157.888 474.59 158.313 474.238 159.164C473.9 160 473.732 161.393 473.732 163.344C473.732 165.353 473.9 166.776 474.238 167.612C474.59 168.448 475.132 168.866 475.866 168.866C476.614 168.866 477.149 168.448 477.472 167.612C477.809 166.776 477.978 165.353 477.978 163.344C477.978 161.364 477.802 159.963 477.45 159.142C477.112 158.306 476.584 157.888 475.866 157.888ZM475.844 161.98C476.254 161.98 476.599 162.119 476.878 162.398C477.156 162.677 477.296 163.014 477.296 163.41C477.296 163.821 477.156 164.165 476.878 164.444C476.599 164.723 476.254 164.862 475.844 164.862C475.433 164.862 475.088 164.723 474.81 164.444C474.546 164.165 474.414 163.821 474.414 163.41C474.414 163.014 474.546 162.677 474.81 162.398C475.088 162.119 475.433 161.98 475.844 161.98ZM494.579 168.36V171H484.679V168.36H488.353V159.164L485.207 161.144L483.733 158.746L488.661 155.754H491.741V168.36H494.579ZM507.77 168.36V171H497.87V168.36H501.544V159.164L498.398 161.144L496.924 158.746L501.852 155.754H504.932V168.36H507.77ZM515.44 155.358C517.244 155.358 518.608 156.055 519.532 157.448C520.471 158.841 520.94 160.807 520.94 163.344C520.94 165.896 520.471 167.876 519.532 169.284C518.608 170.677 517.244 171.374 515.44 171.374C513.636 171.374 512.265 170.677 511.326 169.284C510.402 167.876 509.94 165.896 509.94 163.344C509.94 160.807 510.402 158.841 511.326 157.448C512.265 156.055 513.636 155.358 515.44 155.358ZM515.44 157.888C514.707 157.888 514.164 158.313 513.812 159.164C513.475 160 513.306 161.393 513.306 163.344C513.306 165.353 513.475 166.776 513.812 167.612C514.164 168.448 514.707 168.866 515.44 168.866C516.188 168.866 516.723 168.448 517.046 167.612C517.383 166.776 517.552 165.353 517.552 163.344C517.552 161.364 517.376 159.963 517.024 159.142C516.687 158.306 516.159 157.888 515.44 157.888ZM515.418 161.98C515.829 161.98 516.173 162.119 516.452 162.398C516.731 162.677 516.87 163.014 516.87 163.41C516.87 163.821 516.731 164.165 516.452 164.444C516.173 164.723 515.829 164.862 515.418 164.862C515.007 164.862 514.663 164.723 514.384 164.444C514.12 164.165 513.988 163.821 513.988 163.41C513.988 163.014 514.12 162.677 514.384 162.398C514.663 162.119 515.007 161.98 515.418 161.98Z" fill="black"/>
</svg>
